<svg width="163" height="48" viewBox="0 0 163 48" fill="none" xmlns="http://www.w3.org/2000/svg">
<path d="M156.403 48H5.84106C4.33634 47.9964 2.89433 47.3968 1.83077 46.3323C0.767219 45.2679 0.168785 43.8254 0.166504 42.3206L0.166504 5.67072C0.168791 4.16679 0.767502 2.72517 1.8313 1.66208C2.8951 0.599004 4.33713 0.00126937 5.84106 4.16213e-08H156.403C157.915 -0.000181635 159.367 0.594403 160.444 1.65538C161.522 2.71635 162.139 4.1586 162.163 5.67072V42.3206C162.14 43.8339 161.524 45.2776 160.446 46.3402C159.368 47.4027 157.916 47.9989 156.403 48Z" fill="white"/>
<path d="M161.004 42.3215C161.004 42.9254 160.885 43.5233 160.654 44.0812C160.423 44.6391 160.084 45.1459 159.656 45.5727C159.229 45.9995 158.722 46.3379 158.164 46.5686C157.606 46.7992 157.008 46.9176 156.404 46.917H5.84115C4.62073 46.9185 3.44967 46.4352 2.58553 45.5734C1.72139 44.7116 1.23494 43.5419 1.23315 42.3215V5.66962C1.23468 4.4485 1.72084 3.27792 2.58484 2.415C3.44884 1.55208 4.62003 1.06738 5.84115 1.06738H156.403C157.007 1.06751 157.605 1.18665 158.163 1.418C158.722 1.64935 159.229 1.98839 159.656 2.41575C160.083 2.8431 160.422 3.35041 160.653 3.90872C160.884 4.46702 161.003 5.06537 161.003 5.66962V42.3215H161.004Z" fill="white"/>
<path d="M36.3201 23.7395C36.3351 22.5662 36.6468 21.4157 37.226 20.3951C37.8053 19.3746 38.6333 18.5172 39.633 17.9027C38.9977 16.9958 38.1599 16.2495 37.1858 15.7229C36.2118 15.1963 35.1285 14.904 34.0218 14.8691C31.6612 14.6205 29.3716 16.2813 28.1658 16.2813C26.9389 16.2813 25.0881 14.8931 23.0922 14.9373C21.8021 14.9789 20.5447 15.354 19.4427 16.0261C18.3407 16.6983 17.4317 17.6445 16.8042 18.7725C14.0845 23.4765 16.113 30.3981 18.7185 34.2035C20.0212 36.0669 21.5447 38.1482 23.5377 38.0742C25.4874 37.9936 26.2161 36.831 28.569 36.831C30.9009 36.831 31.5844 38.0742 33.6177 38.0272C35.7105 37.9936 37.0276 36.1552 38.2852 34.2746C39.2218 32.947 39.9424 31.4796 40.4202 29.9267C39.2047 29.4121 38.1676 28.5509 37.4384 27.4506C36.7092 26.3502 36.3203 25.0595 36.3201 23.7395Z" fill="black"/>
<path d="M32.4801 12.3665C33.6211 10.9973 34.1832 9.23706 34.0469 7.45996C32.3031 7.64278 30.6922 8.47566 29.5349 9.79276C28.9694 10.436 28.5364 11.1845 28.2605 11.9952C27.9846 12.806 27.8712 13.6632 27.9269 14.5179C28.7992 14.5275 29.6623 14.3389 30.4511 13.9662C31.2398 13.5935 31.9337 13.0465 32.4801 12.3665Z" fill="black"/>
<path d="M64.5413 37.8046H61.8159L60.3231 33.1141H55.1343L53.7125 37.8046H51.0591L56.1999 21.8389H59.3746L64.5413 37.8046ZM59.8738 31.1461L58.524 26.9758C58.3813 26.5496 58.1128 25.5467 57.7186 23.9672H57.6735C57.516 24.6462 57.2632 25.6491 56.9151 26.9758L55.5893 31.1461H59.8738Z" fill="black"/>
<path d="M77.7616 31.906C77.8545 33.6009 77.2851 35.2656 76.1737 36.5485C75.7277 37.0387 75.1819 37.4277 74.5731 37.6893C73.9642 37.9509 73.3063 38.0792 72.6438 38.0653C72.0017 38.1175 71.3576 37.9931 70.7813 37.7054C70.2049 37.4177 69.7183 36.9778 69.374 36.4333H69.326V42.4977H66.7676V30.081C66.7676 28.8497 66.7356 27.586 66.6716 26.29H68.9219L69.0649 28.114H69.1129C69.5007 27.5205 70.0217 27.0258 70.6345 26.6693C71.2473 26.3128 71.9348 26.1043 72.6424 26.0605C73.35 26.0166 74.058 26.1387 74.7101 26.4169C75.3622 26.6951 75.9403 27.1217 76.3984 27.6628C77.3509 28.8658 77.8352 30.3733 77.7616 31.906ZM75.1552 32.002C75.1952 31.0219 74.9302 30.0536 74.3968 29.2305C74.1498 28.8701 73.8167 28.5773 73.4277 28.3786C73.0387 28.1799 72.6062 28.0817 72.1696 28.0929C71.5409 28.0926 70.9324 28.315 70.4521 28.7207C69.9401 29.1382 69.5853 29.7174 69.446 30.3633C69.3757 30.6178 69.3358 30.8798 69.327 31.1437V33.0637C69.3046 33.8428 69.5791 34.6012 70.095 35.1853C70.3442 35.4682 70.6529 35.6923 70.999 35.8417C71.345 35.9911 71.7199 36.062 72.0966 36.0493C72.5349 36.067 72.9707 35.9744 73.3639 35.7798C73.757 35.5852 74.095 35.295 74.3468 34.9357C74.9221 34.0665 75.2053 33.0364 75.1552 31.9953V32.002Z" fill="black"/>
<path d="M91.0057 31.906C91.0989 33.6011 90.5291 35.266 89.4169 36.5485C88.9712 37.0388 88.4256 37.4278 87.8168 37.6895C87.2081 37.9511 86.5504 38.0793 85.8879 38.0653C85.2468 38.1168 84.6038 37.9919 84.0285 37.7043C83.4532 37.4166 82.9675 36.9771 82.6239 36.4333H82.5759V42.4977H80.0127V30.081C80.0127 28.8497 79.9807 27.586 79.9167 26.29H82.1651L82.3081 28.114H82.3571C82.745 27.5205 83.2661 27.0258 83.8789 26.6693C84.4918 26.3128 85.1794 26.1043 85.8871 26.0605C86.5947 26.0166 87.3028 26.1387 87.955 26.4169C88.6071 26.695 89.1853 27.1217 89.6435 27.6628C90.5943 28.8667 91.0781 30.3736 91.0057 31.906ZM88.3993 32.002C88.439 31.0218 88.1737 30.0535 87.6399 29.2305C87.3933 28.8701 87.0604 28.5772 86.6715 28.3785C86.2827 28.1798 85.8502 28.0816 85.4137 28.0929C84.7848 28.0927 84.176 28.3151 83.6953 28.7207C83.1831 29.1381 82.8283 29.7174 82.6892 30.3633C82.6195 30.6179 82.5796 30.8798 82.5702 31.1437V33.0637C82.5492 33.8425 82.8236 34.6004 83.3382 35.1853C83.5878 35.4681 83.8969 35.6922 84.2433 35.8415C84.5896 35.9909 84.9647 36.0619 85.3417 36.0493C85.78 36.067 86.2158 35.9744 86.609 35.7798C87.0022 35.5852 87.3402 35.295 87.592 34.9357C88.1669 34.0664 88.4497 33.0363 88.3993 31.9953V32.002Z" fill="black"/>
<path d="M105.811 33.3264C105.832 33.9494 105.716 34.5693 105.471 35.1425C105.226 35.7156 104.858 36.2279 104.393 36.6432C103.17 37.6382 101.617 38.1371 100.043 38.041C98.5971 38.1096 97.1615 37.7646 95.9045 37.0464L96.4978 34.9143C97.6117 35.5915 98.8922 35.9449 100.196 35.9347C100.999 35.9829 101.795 35.7523 102.448 35.2819C102.709 35.0743 102.918 34.8081 103.057 34.505C103.197 34.2018 103.263 33.8702 103.251 33.5367C103.258 33.2338 103.202 32.9328 103.088 32.6522C102.974 32.3716 102.804 32.1172 102.588 31.9047C101.947 31.3456 101.197 30.9253 100.385 30.6701C97.5887 29.6275 96.1913 28.1011 96.1925 26.0909C96.177 25.4769 96.3012 24.8673 96.5558 24.3083C96.8104 23.7494 97.1888 23.2556 97.6623 22.8643C98.768 21.979 100.16 21.5292 101.574 21.6C102.826 21.5564 104.069 21.8166 105.198 22.3584L104.563 24.4455C103.623 23.9458 102.571 23.6931 101.506 23.7111C100.746 23.6653 99.9958 23.9015 99.3989 24.3744C99.1946 24.5552 99.0317 24.778 98.9214 25.0275C98.8111 25.277 98.7559 25.5474 98.7596 25.8202C98.7536 26.1196 98.8167 26.4165 98.9439 26.6877C99.0711 26.9588 99.259 27.1971 99.493 27.384C100.197 27.9159 100.981 28.3321 101.816 28.6167C102.963 29.0211 104.001 29.6854 104.849 30.5578C105.503 31.3285 105.846 32.3159 105.811 33.3264Z" fill="black"/>
<path d="M114.273 28.2092H111.453V33.8003C111.453 35.2224 111.95 35.9331 112.946 35.9324C113.328 35.9407 113.71 35.9007 114.082 35.8134L114.153 37.7564C113.512 37.9675 112.839 38.065 112.164 38.0444C111.726 38.0686 111.288 37.9986 110.879 37.8391C110.47 37.6796 110.1 37.4344 109.794 37.12C109.14 36.2242 108.836 35.1197 108.94 34.0153V28.2035H107.26V26.2835H108.94V24.1715L111.454 23.4131V26.2835H114.274V28.2035L114.273 28.2092Z" fill="black"/>
<path d="M126.997 31.9528C127.06 33.5452 126.518 35.1024 125.48 36.3122C124.947 36.8948 124.292 37.3536 123.563 37.6564C122.833 37.9592 122.046 38.0987 121.256 38.0651C120.501 38.0985 119.748 37.9651 119.05 37.6746C118.352 37.3841 117.727 36.9435 117.219 36.3842C116.197 35.2128 115.659 33.6965 115.713 32.1429C115.648 30.537 116.204 28.9677 117.265 27.7605C117.796 27.1895 118.445 26.741 119.167 26.4462C119.889 26.1515 120.667 26.0175 121.446 26.0536C122.206 26.0225 122.964 26.1568 123.668 26.4474C124.372 26.7379 125.004 27.1778 125.521 27.7365C126.532 28.9023 127.061 30.4105 126.997 31.9528ZM124.343 32.0354C124.371 31.0788 124.133 30.1331 123.656 29.3032C123.441 28.8814 123.112 28.5285 122.705 28.2849C122.299 28.0414 121.833 27.9168 121.359 27.9256C120.878 27.9125 120.403 28.035 119.988 28.2793C119.573 28.5236 119.235 28.8798 119.013 29.3071C118.532 30.154 118.294 31.1175 118.327 32.0911C118.298 33.0474 118.536 33.9929 119.013 34.8223C119.238 35.2407 119.572 35.5901 119.98 35.8329C120.389 36.0756 120.855 36.2026 121.33 36.2001C121.805 36.1976 122.271 36.0658 122.676 35.8188C123.082 35.5719 123.413 35.219 123.633 34.7983C124.123 33.9615 124.369 33.0045 124.343 32.0354Z" fill="black"/>
<path d="M135.308 28.5392C135.041 28.491 134.772 28.4672 134.501 28.4682C134.096 28.4496 133.692 28.5334 133.328 28.7117C132.964 28.89 132.65 29.1572 132.416 29.4886C131.969 30.1605 131.745 30.9564 131.777 31.7629V37.8051H129.219L129.243 29.9168C129.243 28.5894 129.211 27.3811 129.147 26.2918H131.375L131.471 28.495H131.542C131.784 27.7765 132.229 27.1431 132.822 26.671C133.356 26.2714 134.004 26.0549 134.671 26.0538C134.885 26.0528 135.099 26.0685 135.31 26.1008V28.5392H135.308Z" fill="black"/>
<path d="M146.754 31.5021C146.759 31.8912 146.727 32.2799 146.658 32.6628H138.989C138.972 33.1524 139.063 33.6398 139.256 34.0904C139.448 34.541 139.737 34.9438 140.103 35.2701C140.817 35.8295 141.707 36.1151 142.613 36.0756C143.673 36.0896 144.727 35.905 145.719 35.5312L146.12 37.3072C144.896 37.8077 143.582 38.0499 142.26 38.0186C141.488 38.0612 140.715 37.9432 139.991 37.6721C139.267 37.4009 138.607 36.9825 138.052 36.4432C137.531 35.8755 137.127 35.2097 136.865 34.4845C136.602 33.7594 136.487 32.9894 136.525 32.2192C136.468 30.6509 136.973 29.1138 137.948 27.8839C138.427 27.2816 139.041 26.8006 139.74 26.4797C140.44 26.1588 141.205 26.0071 141.974 26.0368C142.708 25.9962 143.44 26.1447 144.1 26.4681C144.759 26.7915 145.325 27.279 145.743 27.8839C146.444 28.9571 146.797 30.2207 146.754 31.5021ZM144.314 30.8388C144.348 30.1482 144.175 29.4634 143.817 28.8717C143.606 28.5257 143.305 28.2437 142.945 28.0558C142.586 27.868 142.183 27.7813 141.778 27.8052C141.379 27.7982 140.985 27.8896 140.629 28.0715C140.274 28.2533 139.969 28.52 139.742 28.8477C139.307 29.4264 139.046 30.1165 138.989 30.8378H144.318L144.314 30.8388Z" fill="black"/>
<path d="M59.0269 12.0103C59.0701 12.6034 58.9783 13.1985 58.7585 13.7511C58.5387 14.3036 58.1966 14.7991 57.7578 15.2004C56.797 15.9157 55.6133 16.2662 54.418 16.1892C53.8035 16.1937 53.1893 16.1617 52.5786 16.0932V8.3777C53.295 8.26555 54.0193 8.21097 54.7444 8.2145C55.854 8.13365 56.9559 8.45161 57.8519 9.11114C58.2519 9.47591 58.5651 9.92567 58.7684 10.4274C58.9718 10.9291 59.0601 11.47 59.0269 12.0103ZM57.7012 12.0449C57.7274 11.6622 57.6766 11.278 57.5518 10.9153C57.427 10.5525 57.2307 10.2185 56.9745 9.9329C56.6879 9.67372 56.3519 9.47514 55.9866 9.3491C55.6214 9.22306 55.2344 9.17216 54.849 9.19946C54.5096 9.1943 54.1704 9.22163 53.8362 9.28106V15.1476C54.1184 15.1773 54.4022 15.1888 54.6858 15.1822C55.0924 15.208 55.4999 15.1501 55.8832 15.0121C56.2664 14.874 56.6173 14.6588 56.914 14.3796C57.1921 14.0613 57.4047 13.6912 57.5396 13.2906C57.6745 12.8899 57.7291 12.4666 57.7002 12.0449H57.7012Z" fill="black"/>
<path d="M66.057 13.2439C66.0878 14.0263 65.8217 14.7913 65.312 15.3857C65.0504 15.6721 64.7294 15.8979 64.3714 16.0471C64.0133 16.1964 63.627 16.2655 63.2394 16.2497C62.8682 16.2662 62.498 16.2007 62.155 16.0579C61.812 15.915 61.5048 15.6983 61.2551 15.4231C60.7539 14.8474 60.49 14.1028 60.5168 13.3399C60.4855 12.5519 60.7584 11.7819 61.2791 11.1895C61.5404 10.9095 61.8595 10.6895 62.2142 10.545C62.5689 10.4005 62.9508 10.3347 63.3335 10.3524C63.7071 10.3375 64.0795 10.4035 64.4251 10.546C64.7708 10.6885 65.0815 10.9041 65.336 11.178C65.8291 11.7507 66.0867 12.4889 66.057 13.2439ZM64.7524 13.2852C64.7658 12.8148 64.6492 12.3497 64.4154 11.9412C64.3089 11.735 64.1468 11.5628 63.9474 11.444C63.7481 11.3252 63.5194 11.2647 63.2874 11.2692C63.0518 11.2624 62.8189 11.3218 62.6153 11.4405C62.4117 11.5593 62.2455 11.7328 62.1354 11.9412C61.8993 12.3568 61.7827 12.8296 61.7984 13.3073C61.785 13.7778 61.9016 14.2428 62.1354 14.6513C62.2453 14.8576 62.4101 15.0295 62.6115 15.148C62.8129 15.2666 63.0432 15.3273 63.2768 15.3233C63.5104 15.3248 63.7397 15.261 63.939 15.1393C64.1383 15.0175 64.2996 14.8425 64.4048 14.634C64.6427 14.2252 64.7617 13.758 64.7485 13.2852H64.7524Z" fill="black"/>
<path d="M75.4851 10.4629L73.7148 16.1192H72.5628L71.8294 13.6626C71.6467 13.0627 71.4948 12.4539 71.3743 11.8386H71.3513C71.2426 12.4565 71.0905 13.066 70.8963 13.6626L70.1177 16.1192H68.9532L67.2886 10.4629H68.5807L69.2201 13.1509C69.375 13.7871 69.503 14.3922 69.6041 14.9663H69.6271C69.7206 14.4933 69.8761 13.892 70.0937 13.1624L70.8963 10.4629H71.9206L72.6886 13.1048C72.8748 13.7493 73.0259 14.3701 73.1417 14.9672H73.1763C73.271 14.34 73.3991 13.7183 73.5603 13.1048L74.2467 10.4629H75.4812H75.4851Z" fill="black"/>
<path d="M82.0045 16.119H80.7469V12.879C80.7469 11.8806 80.3671 11.3814 79.6074 11.3814C79.4347 11.3763 79.2631 11.4108 79.1057 11.4822C78.9483 11.5536 78.8093 11.6599 78.6993 11.7932C78.4688 12.0632 78.3446 12.4079 78.3498 12.7628V16.118H77.0922V12.0783C77.0922 11.5817 77.0769 11.0422 77.0461 10.4598H78.1511L78.2097 11.3439H78.2442C78.3976 11.063 78.6225 10.8275 78.8961 10.6614C79.2382 10.4498 79.6333 10.3396 80.0356 10.3436C80.2782 10.3362 80.5197 10.3778 80.7459 10.4658C80.972 10.5539 81.1781 10.6867 81.3517 10.8563C81.5832 11.1074 81.7605 11.4034 81.8726 11.7259C81.9848 12.0485 82.0293 12.3906 82.0036 12.7311L82.0045 16.119Z" fill="black"/>
<path d="M85.472 16.1193H84.2153V7.86328H85.472V16.1193Z" fill="black"/>
<path d="M92.8756 13.2439C92.9064 14.0263 92.6403 14.7913 92.1306 15.3857C91.869 15.6721 91.5479 15.8978 91.1899 16.047C90.8319 16.1963 90.4456 16.2654 90.058 16.2497C89.6868 16.2664 89.3165 16.201 88.9735 16.0581C88.6305 15.9153 88.3232 15.6984 88.0737 15.4231C87.5725 14.8474 87.3086 14.1028 87.3354 13.3399C87.3041 12.5519 87.577 11.7819 88.0977 11.1895C88.3588 10.9095 88.6778 10.6896 89.0323 10.5451C89.3869 10.4005 89.7686 10.3348 90.1511 10.3524C90.525 10.3372 90.8978 10.4031 91.2438 10.5456C91.5898 10.6881 91.9009 10.9038 92.1556 11.178C92.6483 11.7508 92.9056 12.489 92.8756 13.2439ZM91.57 13.2852C91.5834 12.8147 91.4668 12.3497 91.233 11.9412C91.1268 11.735 90.9649 11.5627 90.7657 11.444C90.5664 11.3252 90.3379 11.2646 90.106 11.2692C89.8703 11.2621 89.6374 11.3213 89.4337 11.4401C89.23 11.5589 89.0638 11.7325 88.954 11.9412C88.7179 12.3568 88.6013 12.8296 88.617 13.3073C88.6036 13.7777 88.7202 14.2428 88.954 14.6513C89.0639 14.8575 89.2287 15.0294 89.4301 15.148C89.6315 15.2666 89.8618 15.3272 90.0954 15.3233C90.3289 15.3248 90.5581 15.2611 90.7572 15.1393C90.9563 15.0175 91.1175 14.8425 91.2225 14.634C91.4622 14.2257 91.5826 13.7585 91.57 13.2852Z" fill="black"/>
<path d="M98.9649 16.1194H97.833L97.737 15.4676H97.7024C97.5126 15.7236 97.2624 15.9288 96.9742 16.0649C96.686 16.2011 96.3686 16.264 96.0503 16.248C95.8111 16.258 95.5726 16.2175 95.3501 16.1292C95.1276 16.0409 94.9263 15.9067 94.7591 15.7354C94.613 15.582 94.4988 15.4013 94.4228 15.2036C94.3469 15.0059 94.3107 14.7951 94.3165 14.5834C94.3041 14.2661 94.3779 13.9514 94.53 13.6726C94.6822 13.3939 94.907 13.1616 95.1805 13.0004C95.927 12.5957 96.7726 12.4103 97.6199 12.4656V12.36C97.6199 11.6151 97.2282 11.2426 96.4449 11.2426C95.9227 11.2327 95.4094 11.3784 94.9703 11.6612L94.7149 10.8356C95.3048 10.4933 95.9793 10.3243 96.6608 10.3479C98.1392 10.3479 98.8794 11.1277 98.8813 12.6874V14.7706C98.8747 15.2217 98.9026 15.6726 98.9649 16.1194ZM97.6592 14.1754V13.3018C96.2724 13.2775 95.5786 13.6576 95.578 14.4423C95.5684 14.5636 95.585 14.6856 95.6266 14.8001C95.6681 14.9145 95.7337 15.0187 95.8189 15.1056C95.9878 15.2553 96.2078 15.3344 96.4333 15.3264C96.7111 15.3254 96.9809 15.2333 97.2013 15.0644C97.3438 14.9641 97.4597 14.8307 97.5392 14.6757C97.6186 14.5207 97.6592 14.3486 97.6573 14.1744L97.6592 14.1754Z" fill="black"/>
<path d="M106.108 16.1193H104.993L104.934 15.2112H104.899C104.732 15.5445 104.471 15.821 104.147 16.0056C103.824 16.1902 103.453 16.2746 103.081 16.248C102.756 16.2531 102.433 16.1834 102.138 16.0443C101.844 15.9052 101.585 15.7003 101.382 15.4454C100.914 14.8546 100.676 14.1149 100.71 13.3622C100.673 12.5561 100.934 11.7645 101.444 11.1389C101.658 10.8866 101.926 10.6848 102.228 10.5479C102.53 10.411 102.858 10.3424 103.19 10.3469C103.5 10.3158 103.813 10.371 104.095 10.5065C104.376 10.6421 104.614 10.8526 104.783 11.1149H104.807V7.86719H106.066V14.5958C106.065 15.1462 106.079 15.6541 106.108 16.1193ZM104.804 13.7337V12.7901C104.807 12.657 104.796 12.5241 104.77 12.3936C104.703 12.0977 104.543 11.8308 104.315 11.6313C104.083 11.4271 103.783 11.3172 103.474 11.3232C103.257 11.316 103.043 11.3635 102.849 11.4611C102.656 11.5587 102.491 11.7035 102.368 11.8819C102.085 12.3043 101.944 12.8055 101.965 13.3133C101.942 13.797 102.077 14.275 102.349 14.6755C102.471 14.8526 102.636 14.9963 102.828 15.0937C103.02 15.1911 103.233 15.239 103.448 15.2333C103.639 15.2393 103.828 15.2003 104.001 15.1194C104.173 15.0385 104.324 14.918 104.442 14.7677C104.684 14.4787 104.813 14.1111 104.804 13.7337Z" fill="black"/>
<path d="M116.862 13.244C116.893 14.0263 116.627 14.7914 116.117 15.3857C115.856 15.6723 115.535 15.8981 115.177 16.0473C114.818 16.1966 114.432 16.2657 114.044 16.2497C113.673 16.266 113.303 16.2004 112.96 16.0575C112.617 15.9147 112.31 15.6981 112.06 15.4232C111.559 14.8474 111.295 14.1028 111.322 13.34C111.291 12.5516 111.565 11.7817 112.086 11.1896C112.348 10.9094 112.667 10.6895 113.022 10.5449C113.377 10.4004 113.759 10.3347 114.141 10.3524C114.515 10.3371 114.887 10.403 115.233 10.5455C115.578 10.6881 115.889 10.9039 116.143 11.178C116.635 11.751 116.892 12.4892 116.862 13.244ZM115.559 13.2852C115.573 12.8148 115.456 12.3497 115.222 11.9412C115.115 11.7353 114.953 11.5634 114.754 11.4447C114.554 11.326 114.326 11.2652 114.093 11.2692C113.858 11.2628 113.625 11.3223 113.422 11.441C113.218 11.5597 113.052 11.733 112.941 11.9412C112.705 12.3568 112.589 12.8296 112.604 13.3073C112.591 13.7778 112.708 14.2429 112.941 14.6513C113.052 14.8568 113.216 15.0283 113.417 15.1474C113.618 15.2665 113.847 15.3288 114.08 15.3275C114.314 15.3262 114.542 15.2614 114.742 15.1401C114.941 15.0188 115.104 14.8455 115.212 14.6388C115.452 14.2289 115.573 13.7602 115.561 13.2852H115.559Z" fill="black"/>
<path d="M123.626 16.119H122.37V12.879C122.37 11.8806 121.989 11.3814 121.228 11.3814C121.055 11.3762 120.884 11.4106 120.727 11.482C120.569 11.5534 120.431 11.6598 120.321 11.7932C120.09 12.0629 119.966 12.4078 119.971 12.7628V16.118H118.715V12.0783C118.715 11.5817 118.7 11.0422 118.671 10.4598H119.771L119.829 11.3439H119.867C120.021 11.0635 120.246 10.8282 120.519 10.6614C120.861 10.4496 121.257 10.3394 121.66 10.3436C121.903 10.3363 122.144 10.3779 122.37 10.466C122.596 10.5541 122.802 10.6868 122.975 10.8562C123.207 11.1072 123.384 11.4032 123.497 11.7258C123.609 12.0484 123.653 12.3906 123.627 12.7311L123.626 16.119Z" fill="black"/>
<path d="M132.09 11.4048H130.704V14.1523C130.704 14.8512 130.95 15.1996 131.438 15.1996C131.627 15.2041 131.815 15.1844 131.999 15.1411L132.031 16.0953C131.716 16.199 131.385 16.2465 131.054 16.2355C130.839 16.2475 130.624 16.2131 130.423 16.1348C130.223 16.0564 130.041 15.9359 129.891 15.7814C129.569 15.3417 129.419 14.7987 129.472 14.256V11.4048H128.645V10.463H129.472V9.42619L130.704 9.05371V10.4611H132.09V11.4038V11.4048Z" fill="black"/>
<path d="M138.747 16.1193H137.492V12.9014C137.492 11.8877 137.113 11.3805 136.354 11.3798C136.084 11.3702 135.818 11.4521 135.6 11.6122C135.383 11.7724 135.225 12.0013 135.154 12.2621C135.112 12.4092 135.093 12.5615 135.095 12.7142V16.1165H133.835V7.86719H135.092V11.2761H135.116C135.29 10.983 135.54 10.742 135.839 10.5783C136.137 10.4147 136.475 10.3344 136.816 10.3459C137.055 10.3385 137.293 10.3801 137.516 10.4683C137.738 10.5564 137.94 10.6893 138.11 10.8585C138.337 11.1161 138.511 11.4166 138.621 11.7424C138.731 12.0682 138.774 12.4127 138.749 12.7555L138.747 16.1193Z" fill="black"/>
<path d="M145.615 13.0242C145.618 13.2154 145.602 13.4063 145.568 13.5945H141.796C141.789 13.8348 141.833 14.074 141.928 14.2953C142.022 14.5165 142.164 14.7144 142.343 14.8751C142.694 15.1497 143.132 15.29 143.577 15.2706C144.098 15.2775 144.615 15.1866 145.103 15.0028L145.299 15.8764C144.697 16.1219 144.051 16.2409 143.401 16.2258C143.022 16.2468 142.643 16.1889 142.288 16.0557C141.932 15.9225 141.608 15.717 141.337 15.4521C141.08 15.1731 140.881 14.8456 140.752 14.4889C140.624 14.1322 140.567 13.7534 140.587 13.3746C140.559 12.604 140.806 11.8486 141.286 11.2444C141.521 10.9484 141.822 10.712 142.166 10.5543C142.51 10.3967 142.886 10.3223 143.263 10.3372C143.623 10.3173 143.983 10.3903 144.306 10.5491C144.63 10.708 144.908 10.9474 145.112 11.2444C145.462 11.7705 145.638 12.3929 145.615 13.0242ZM144.41 12.6988C144.428 12.3597 144.343 12.0232 144.167 11.733C144.063 11.5631 143.915 11.4246 143.739 11.3323C143.562 11.2399 143.364 11.1973 143.165 11.2089C142.969 11.2057 142.776 11.2507 142.601 11.3401C142.427 11.4296 142.277 11.5605 142.165 11.7215C141.952 12.0063 141.822 12.3452 141.792 12.6998H144.41V12.6988Z" fill="black"/>
</svg>
