<svg width="15" height="16" viewBox="0 0 15 16" fill="none" xmlns="http://www.w3.org/2000/svg">
<path d="M0.748795 8C0.748795 9.79021 1.45995 11.5071 2.72582 12.773C3.99169 14.0388 5.70858 14.75 7.49879 14.75C9.28901 14.75 11.0059 14.0388 12.2718 12.773C13.5376 11.5071 14.2488 9.79021 14.2488 8C14.2488 6.20979 13.5376 4.4929 12.2718 3.22703C11.0059 1.96116 9.28901 1.25 7.49879 1.25C5.70858 1.25 3.99169 1.96116 2.72582 3.22703C1.45995 4.4929 0.748795 6.20979 0.748795 8Z" fill="white" stroke="white" stroke-width="1.25" stroke-linecap="round" stroke-linejoin="round"/>
<path d="M4.7988 10.7003L10.1982 5.30029" stroke="#0F241B" stroke-width="1.25" stroke-linecap="round" stroke-linejoin="round"/>
<path d="M10.1988 10.7003L4.7982 5.30029" stroke="#0F241B" stroke-width="1.25" stroke-linecap="round" stroke-linejoin="round"/>
</svg>
