<svg width="163" height="48" viewBox="0 0 163 48" fill="none" xmlns="http://www.w3.org/2000/svg">
<path fill-rule="evenodd" clip-rule="evenodd" d="M156.807 48H6.19338C4.59983 47.9993 3.07137 47.3677 1.94205 46.2434C0.81272 45.1192 0.174369 43.5935 0.166504 42L0.166504 6C0.172348 4.40584 0.810054 2.87904 1.93982 1.75432C3.06958 0.629595 4.59922 -0.00127942 6.19338 1.94814e-06H156.807C158.401 -0.00077278 159.93 0.630265 161.06 1.75488C162.189 2.8795 162.827 4.406 162.834 6V42C162.825 43.5934 162.187 45.1187 161.058 46.2429C159.928 47.3671 158.4 47.9987 156.807 48Z" fill="white"/>
<path fill-rule="evenodd" clip-rule="evenodd" d="M156.807 0.96C158.146 0.960233 159.43 1.49035 160.379 2.43454C161.328 3.37872 161.865 4.66022 161.873 5.99904V41.999C161.868 43.339 161.333 44.6224 160.383 45.5676C159.433 46.5127 158.147 47.0423 156.807 47.04H6.19338C4.85421 47.04 3.56948 46.5099 2.62003 45.5655C1.67057 44.621 1.13361 43.3391 1.1265 42V6C1.13108 4.66006 1.66724 3.3767 2.61724 2.43174C3.56725 1.48677 4.85344 0.957448 6.19338 0.96H156.807ZM156.807 0H6.19338C4.59983 0.000741721 3.07137 0.632268 1.94205 1.75656C0.81272 2.88085 0.174369 4.40647 0.166504 6L0.166504 42C0.172348 43.5942 0.810054 45.1209 1.93982 46.2457C3.06958 47.3704 4.59922 48.0013 6.19338 48H156.807C158.401 48.0008 159.93 47.3697 161.06 46.2451C162.189 45.1205 162.827 43.594 162.834 42V6C162.825 4.40663 162.187 2.88129 161.058 1.75711C159.928 0.632934 158.4 0.00124605 156.807 0V0Z" fill="white"/>
<path d="M85.8637 15.8789C85.3558 15.8911 84.8509 15.7971 84.3814 15.6028C83.9119 15.4086 83.4882 15.1184 83.1374 14.7509C82.7805 14.3879 82.4993 13.9575 82.3103 13.4849C82.1212 13.0122 82.028 12.5066 82.0362 11.9976C82.0237 11.4885 82.1149 10.9821 82.3042 10.5093C82.4935 10.0365 82.777 9.6071 83.1374 9.24724C83.4876 8.87975 83.9108 8.58957 84.3798 8.39531C84.8488 8.20106 85.3533 8.107 85.8608 8.11922C86.3684 8.10958 86.8726 8.2048 87.3417 8.39889C87.8108 8.59298 88.2349 8.88179 88.5873 9.24724C89.2942 9.98826 89.6885 10.973 89.6885 11.9972C89.6885 13.0213 89.2942 14.0061 88.5873 14.7471C88.2381 15.1163 87.8151 15.4078 87.3459 15.6028C86.8767 15.7978 86.3717 15.8919 85.8637 15.8789ZM53.5415 15.8789C53.0338 15.8864 52.5297 15.7916 52.0594 15.6003C51.589 15.409 51.162 15.125 50.8036 14.7653C50.2537 14.2244 49.8776 13.5318 49.7233 12.7761C49.5691 12.0203 49.6438 11.2357 49.9377 10.5226C50.2316 9.80949 50.7314 9.2002 51.3733 8.7726C52.0153 8.345 52.7702 8.11853 53.5415 8.12212C54.0677 8.12116 54.5883 8.22901 55.0707 8.43891C55.5186 8.62145 55.9175 8.90653 56.2352 9.27123L56.3073 9.35763L55.496 10.1535L55.4126 10.0575C55.1827 9.78614 54.8931 9.57172 54.5665 9.43099C54.2399 9.29025 53.8851 9.22702 53.5299 9.24627C53.1818 9.24225 52.8364 9.30815 52.5142 9.44007C52.1919 9.57199 51.8995 9.76724 51.6541 10.0143C51.1467 10.5538 50.8642 11.2666 50.8642 12.0072C50.8642 12.7479 51.1467 13.4607 51.6541 14.0002C52.1652 14.4917 52.8468 14.7662 53.5558 14.7662C54.2649 14.7662 54.9466 14.4917 55.4577 14.0002C55.7766 13.6582 55.9704 13.2183 56.0078 12.7522H53.4071V11.6328H57.1242L57.1396 11.7346C57.1704 11.9207 57.1884 12.1086 57.1933 12.2972C57.2148 12.7523 57.1437 13.2071 56.9843 13.634C56.8249 14.0609 56.5804 14.451 56.2659 14.7807C55.9133 15.1445 55.4883 15.4302 55.0183 15.6193C54.5484 15.8085 54.044 15.8969 53.5377 15.8789H53.5415ZM96.5169 15.7205H95.3678L91.858 10.1036L91.8878 11.1154V15.7176H90.7415V8.28147H92.049L92.0845 8.33813L95.385 13.6287L95.3552 12.6197V8.2805H96.513L96.5169 15.7205ZM77.2506 15.7205H76.0899V9.39987H74.074V8.2805H79.258V9.39987H77.242V15.7205H77.2506ZM73.1303 15.7205H71.9726V8.28147H73.1303V15.7205ZM66.6215 15.7205H65.4637V9.39987H63.4478V8.2805H68.6318V9.39987H66.6157L66.6215 15.7205ZM62.7162 15.709H58.2752V8.28147H62.7162V9.40084H59.4369V11.4418H62.3966V12.5487H59.4369V14.5896H62.7162V15.709ZM83.987 13.981C84.2302 14.2316 84.522 14.4298 84.8446 14.5636C85.1671 14.6973 85.5136 14.7636 85.8628 14.7586C86.2127 14.7678 86.5605 14.7033 86.8838 14.5694C87.2072 14.4354 87.4987 14.2349 87.7396 13.981C88.2315 13.4385 88.504 12.7324 88.504 12C88.504 11.2677 88.2315 10.5616 87.7396 10.0191C87.4962 9.76869 87.2044 9.57061 86.8819 9.43691C86.5593 9.3032 86.2128 9.2367 85.8637 9.24147C85.5144 9.23219 85.167 9.29665 84.8443 9.43064C84.5216 9.56462 84.2307 9.76512 83.9907 10.0191C83.4988 10.5613 83.226 11.2668 83.2249 11.9989C83.2238 12.731 83.4947 13.4374 83.985 13.981H83.987Z" fill="black"/>
<path fill-rule="evenodd" clip-rule="evenodd" d="M81.925 26.1034C80.9159 26.1064 79.9304 26.4084 79.0928 26.9712C78.2553 27.5341 77.6033 28.3325 77.2192 29.2656C76.8352 30.1987 76.7363 31.2247 76.935 32.214C77.1338 33.2033 77.6212 34.1116 78.3358 34.824C79.0504 35.5365 79.9601 36.0212 80.95 36.2169C81.9399 36.4127 82.9655 36.3107 83.8975 35.9238C84.8295 35.537 85.626 34.8826 86.1863 34.0434C86.7466 33.2042 87.0456 32.2178 87.0456 31.2087C87.0564 30.534 86.9312 29.8639 86.6775 29.2386C86.4238 28.6133 86.0468 28.0456 85.569 27.5691C85.0911 27.0927 84.5222 26.7173 83.8961 26.4655C83.27 26.2137 82.5997 26.0906 81.925 26.1034ZM81.925 34.2912C81.3034 34.336 80.6827 34.1925 80.1439 33.8795C79.605 33.5665 79.1728 33.0984 78.9037 32.5364C78.6346 31.9743 78.541 31.3442 78.6351 30.7281C78.7291 30.1121 79.0065 29.5387 79.4311 29.0825C79.8557 28.6264 80.4078 28.3086 81.0155 28.1707C81.6232 28.0328 82.2585 28.0811 82.8384 28.3093C83.4183 28.5375 83.916 28.935 84.2668 29.4501C84.6175 29.9652 84.8051 30.574 84.805 31.1971C84.8243 31.5908 84.7646 31.9845 84.6295 32.3548C84.4943 32.7251 84.2864 33.0645 84.018 33.3532C83.7496 33.6419 83.4261 33.874 83.0666 34.0358C82.7072 34.1975 82.3191 34.2857 81.925 34.295V34.2912ZM70.7563 26.1034C69.7472 26.1062 68.7616 26.4081 67.9239 26.9708C67.0863 27.5335 66.4342 28.3318 66.05 29.2649C65.6658 30.198 65.5667 31.2241 65.7653 32.2134C65.9639 33.2028 66.4513 34.1111 67.1658 34.8237C67.8804 35.5362 68.7901 36.021 69.78 36.2169C70.77 36.4127 71.7958 36.3108 72.7278 35.9239C73.6598 35.5371 74.4562 34.8827 75.0166 34.0435C75.5769 33.2043 75.876 32.2178 75.876 31.2087C75.8868 30.534 75.7617 29.8641 75.5081 29.2389C75.2544 28.6136 74.8775 28.0459 74.3997 27.5695C73.9219 27.093 73.353 26.7177 72.7271 26.4658C72.1011 26.2139 71.4309 26.0907 70.7563 26.1034ZM70.7563 34.2912C70.1348 34.336 69.5141 34.1925 68.9752 33.8795C68.4363 33.5665 68.0042 33.0984 67.7351 32.5364C67.466 31.9743 67.3723 31.3442 67.4664 30.7281C67.5605 30.1121 67.8379 29.5387 68.2625 29.0825C68.6871 28.6264 69.2392 28.3086 69.847 28.1707C70.4547 28.0328 71.0898 28.0811 71.6697 28.3093C72.2496 28.5375 72.7473 28.935 73.0981 29.4501C73.4489 29.9652 73.6365 30.574 73.6363 31.1971C73.6557 31.5908 73.5959 31.9845 73.4608 32.3548C73.3256 32.7251 73.1178 33.0645 72.8494 33.3532C72.581 33.6419 72.2576 33.874 71.8981 34.0358C71.5386 34.1975 71.1504 34.2857 70.7563 34.295V34.2912ZM57.4632 27.6672V29.8282H62.6472C62.5704 30.8405 62.1574 31.7981 61.474 32.5488C60.9554 33.0788 60.3312 33.4938 59.6419 33.767C58.9526 34.0402 58.2136 34.1655 57.4728 34.1347C55.9451 34.1347 54.48 33.5279 53.3998 32.4477C52.3196 31.3675 51.7128 29.9024 51.7128 28.3747C51.7128 26.8471 52.3196 25.382 53.3998 24.3018C54.48 23.2216 55.9451 22.6147 57.4728 22.6147C58.9273 22.5975 60.3301 23.1534 61.3781 24.1623L62.914 22.6263C62.2013 21.9183 61.3543 21.3601 60.4226 20.9844C59.491 20.6086 58.4935 20.423 57.4891 20.4384C56.4343 20.4152 55.3856 20.6029 54.4043 20.9905C53.4231 21.378 52.5293 21.9577 51.7751 22.6955C51.021 23.4332 50.4217 24.3142 50.0126 25.2866C49.6035 26.2591 49.3928 27.3034 49.3928 28.3584C49.3928 29.4134 49.6035 30.4578 50.0126 31.4302C50.4217 32.4027 51.021 33.2837 51.7751 34.0214C52.5293 34.7591 53.4231 35.3388 54.4043 35.7264C55.3856 36.114 56.4343 36.3017 57.4891 36.2784C58.5165 36.321 59.5414 36.1444 60.4954 35.7606C61.4494 35.3768 62.3108 34.7944 63.0225 34.0522C64.2858 32.6733 64.9604 30.8554 64.9022 28.9863C64.9077 28.5354 64.8675 28.085 64.7822 27.6423H57.4622L57.4613 27.6663L57.4632 27.6672ZM111.835 29.3491C111.528 28.4235 110.945 27.6146 110.162 27.0326C109.38 26.4507 108.437 26.1239 107.463 26.0967C106.807 26.1009 106.159 26.2382 105.558 26.5C104.957 26.7619 104.415 27.1429 103.965 27.6201C103.515 28.0973 103.167 28.6608 102.941 29.2764C102.715 29.8921 102.617 30.5471 102.651 31.2019C102.636 31.8732 102.756 32.5407 103.005 33.1645C103.254 33.7882 103.626 34.3554 104.099 34.832C104.571 35.3086 105.136 35.6849 105.758 35.9384C106.379 36.1919 107.046 36.3173 107.717 36.3072C108.558 36.3123 109.388 36.1078 110.13 35.7123C110.873 35.3168 111.505 34.7426 111.97 34.0416L110.242 32.881C109.983 33.314 109.615 33.672 109.176 33.9196C108.736 34.1673 108.239 34.296 107.734 34.2932C107.214 34.3127 106.699 34.1756 106.257 33.8998C105.815 33.6239 105.465 33.2219 105.254 32.7456L112.079 29.9174L111.833 29.3482L111.835 29.3491ZM104.874 31.055C104.85 30.6839 104.901 30.3118 105.023 29.9605C105.145 29.6091 105.335 29.2855 105.583 29.0085C105.831 28.7315 106.132 28.5066 106.468 28.3471C106.804 28.1875 107.168 28.0964 107.54 28.0791C107.927 28.0524 108.313 28.1406 108.65 28.3328C108.987 28.5249 109.26 28.8124 109.434 29.1591L104.874 31.055ZM99.3288 36.0019H101.572V21.0019H99.3307L99.3288 36.0019ZM95.6481 27.2429H95.5675C95.2265 26.8707 94.8097 26.5758 94.3452 26.3781C93.8808 26.1804 93.3793 26.0844 92.8747 26.0967C91.5581 26.1509 90.3136 26.712 89.4012 27.6626C88.4889 28.6133 87.9794 29.88 87.9794 31.1976C87.9794 32.5153 88.4889 33.7819 89.4012 34.7326C90.3136 35.6832 91.5581 36.2444 92.8747 36.2986C93.3805 36.3097 93.8828 36.2117 94.3475 36.0114C94.8121 35.8112 95.2282 35.5132 95.5675 35.1379H95.6481V35.8714C95.6481 37.8192 94.6065 38.8695 92.9275 38.8695C92.3671 38.856 91.8234 38.6765 91.3652 38.3537C90.9069 38.0308 90.5549 37.5792 90.3537 37.056L88.4059 37.8701C88.775 38.7641 89.4018 39.5281 90.2065 40.0648C91.0112 40.6014 91.9574 40.8864 92.9246 40.8836C95.5521 40.8836 97.7784 39.336 97.7784 35.5632V26.4029H95.6596V27.2439L95.6481 27.2429ZM93.0743 34.296C92.2992 34.2305 91.5771 33.8763 91.0507 33.3035C90.5244 32.7308 90.2323 31.9813 90.2323 31.2034C90.2323 30.4255 90.5244 29.676 91.0507 29.1032C91.5771 28.5305 92.2992 28.1763 93.0743 28.1108C93.4592 28.1295 93.8365 28.2256 94.1834 28.3932C94.5303 28.5609 94.8399 28.7967 95.0937 29.0866C95.3475 29.3766 95.5403 29.7147 95.6607 30.0807C95.781 30.4468 95.8263 30.8333 95.794 31.2173C95.8273 31.6001 95.7825 31.9858 95.6621 32.3507C95.5417 32.7157 95.3483 33.0524 95.0937 33.3403C94.8391 33.6281 94.5288 33.8613 94.1813 34.0254C93.8338 34.1895 93.4565 34.2813 93.0725 34.295L93.0743 34.296ZM122.329 21.0029H116.97V36.001H119.211V30.3216H122.332C122.966 30.3569 123.6 30.2625 124.196 30.0442C124.792 29.826 125.337 29.4885 125.798 29.0524C126.259 28.6162 126.627 28.0907 126.878 27.5078C127.129 26.9249 127.258 26.2969 127.258 25.6623C127.258 25.0276 127.129 24.3996 126.878 23.8167C126.627 23.2338 126.259 22.7083 125.798 22.2721C125.337 21.836 124.792 21.4985 124.196 21.2803C123.6 21.062 122.966 20.9676 122.332 21.0029H122.329ZM122.396 28.2269H119.208V23.0794H122.396C122.734 23.0794 123.068 23.146 123.381 23.2753C123.693 23.4047 123.977 23.5942 124.216 23.8332C124.455 24.0722 124.644 24.3559 124.774 24.6682C124.903 24.9805 124.969 25.3152 124.969 25.6532C124.969 25.9912 124.903 26.3258 124.774 26.6381C124.644 26.9503 124.455 27.2341 124.216 27.4731C123.977 27.7121 123.693 27.9016 123.381 28.031C123.068 28.1603 122.734 28.2269 122.396 28.2269ZM136.236 26.0813C135.419 26.0346 134.605 26.2263 133.895 26.6333C133.184 27.0403 132.608 27.645 132.235 28.3738L134.222 29.1994C134.419 28.8373 134.716 28.5401 135.078 28.3436C135.441 28.1472 135.852 28.0599 136.263 28.0925C136.832 28.0378 137.399 28.2104 137.842 28.5726C138.284 28.9348 138.565 29.4573 138.623 30.026V30.1843C137.903 29.8061 137.102 29.6084 136.289 29.6084C134.143 29.6084 131.969 30.7815 131.969 32.9808C131.989 33.4447 132.102 33.8997 132.301 34.3189C132.5 34.7382 132.782 35.1133 133.129 35.4217C133.476 35.7302 133.881 35.9658 134.321 36.1146C134.761 36.2634 135.226 36.3224 135.689 36.288C136.252 36.3209 136.813 36.2023 137.315 35.9445C137.817 35.6867 138.24 35.2991 138.541 34.8221H138.622V35.9837H140.783V30.2381C140.779 27.5616 138.791 26.0803 136.233 26.0803L136.236 26.0813ZM135.955 34.296C135.221 34.296 134.195 33.937 134.195 33.0154C134.195 31.8547 135.476 31.4141 136.568 31.4141C137.282 31.3922 137.988 31.5672 138.609 31.92C138.53 32.5712 138.217 33.1715 137.728 33.6086C137.239 34.0457 136.608 34.2897 135.952 34.295L135.955 34.296ZM148.664 26.4019L146.09 32.9078H146.01L143.344 26.4019H140.932L144.934 35.496L142.654 40.5504H144.987L151.143 26.4019H148.664ZM128.489 36.0019H130.73V21.0019H128.489V36.0019Z" fill="black"/>
<path fill-rule="evenodd" clip-rule="evenodd" d="M12.6868 9.04062C12.2969 9.51563 12.1013 10.1207 12.1396 10.734V37.2684C12.0962 37.8802 12.2975 38.4841 12.6993 38.9475L12.7952 39.0281L27.6618 24.1616V23.8294L12.7818 8.95996L12.6868 9.04062Z" fill="url(#paint0_linear_233_17282)"/>
<path fill-rule="evenodd" clip-rule="evenodd" d="M32.6049 29.1315L27.6465 24.1731V23.8256L32.6049 18.8672L32.7124 18.9334L38.578 22.2675C40.2571 23.2131 40.2571 24.775 38.578 25.7331L32.7124 29.0672L32.6049 29.1315Z" fill="url(#paint1_linear_233_17282)"/>
<path fill-rule="evenodd" clip-rule="evenodd" d="M32.7124 29.0659L27.6465 24L12.6868 38.9597C13.0288 39.2607 13.4649 39.4333 13.9203 39.448C14.3757 39.4627 14.822 39.3186 15.1828 39.0403L32.7162 29.0659" fill="url(#paint2_linear_233_17282)"/>
<path fill-rule="evenodd" clip-rule="evenodd" d="M32.7124 18.9341L15.1828 8.976C14.8235 8.69416 14.3765 8.54779 13.9201 8.56254C13.4637 8.57728 13.0271 8.75222 12.6868 9.05666L27.6465 24.001L32.7124 18.9341Z" fill="url(#paint3_linear_233_17282)"/>
<path opacity="0.2" fill-rule="evenodd" clip-rule="evenodd" d="M32.6058 28.958L15.1952 38.8508C14.8519 39.1159 14.4309 39.2607 13.9972 39.2628C13.5634 39.2649 13.1411 39.1241 12.7952 38.8623L12.6992 38.9583L12.7952 39.0389C13.1414 39.3 13.5636 39.4402 13.9972 39.4381C14.4307 39.4361 14.8516 39.2918 15.1952 39.0275L32.7287 29.0684L32.6058 28.958Z" fill="white"/>
<path opacity="0.12" fill-rule="evenodd" clip-rule="evenodd" d="M38.5788 25.5591L32.5903 28.9584L32.6979 29.0659L38.5635 25.7319C38.9078 25.5821 39.2056 25.3429 39.4261 25.039C39.6466 24.7351 39.7816 24.3777 39.8172 24.0039C39.7505 24.3434 39.6032 24.6618 39.3877 24.9325C39.1722 25.2032 38.8948 25.4181 38.5788 25.5591Z" fill="white"/>
<path opacity="0.25" fill-rule="evenodd" clip-rule="evenodd" d="M15.18 9.14767L38.5781 22.4408C38.895 22.5836 39.1738 22.7992 39.3916 23.0702C39.6095 23.3411 39.7603 23.6596 39.8318 23.9998C39.7963 23.6261 39.6612 23.2686 39.4407 22.9647C39.2202 22.6609 38.9223 22.4216 38.5781 22.2718L15.18 8.97487C13.5009 8.01487 12.1396 8.81645 12.1396 10.7345V10.9083C12.1396 8.98637 13.5009 8.19919 15.18 9.14767Z" fill="black"/>
<defs>
<linearGradient id="paint0_linear_233_17282" x1="50.5191" y1="40.0805" x2="48.7049" y2="39.8273" gradientUnits="userSpaceOnUse">
<stop stop-color="#00A0FF"/>
<stop offset="0.007" stop-color="#00A1FF"/>
<stop offset="0.26" stop-color="#00BEFF"/>
<stop offset="0.512" stop-color="#00D2FF"/>
<stop offset="0.76" stop-color="#00DFFF"/>
<stop offset="1" stop-color="#00E3FF"/>
</linearGradient>
<linearGradient id="paint1_linear_233_17282" x1="51.4186" y1="38.1539" x2="48.249" y2="38.1539" gradientUnits="userSpaceOnUse">
<stop stop-color="#FFE000"/>
<stop offset="0.409" stop-color="#FFBD00"/>
<stop offset="0.775" stop-color="#FFA500"/>
<stop offset="1" stop-color="#FF9C00"/>
</linearGradient>
<linearGradient id="paint2_linear_233_17282" x1="51.2635" y1="38.6148" x2="50.0508" y2="35.9713" gradientUnits="userSpaceOnUse">
<stop stop-color="#FF3A44"/>
<stop offset="1" stop-color="#C31162"/>
</linearGradient>
<linearGradient id="paint3_linear_233_17282" x1="49.8543" y1="40.8763" x2="50.4015" y2="39.6991" gradientUnits="userSpaceOnUse">
<stop stop-color="#32A071"/>
<stop offset="0.068" stop-color="#2DA771"/>
<stop offset="0.476" stop-color="#15CF74"/>
<stop offset="0.801" stop-color="#06E775"/>
<stop offset="1" stop-color="#00F076"/>
</linearGradient>
</defs>
</svg>
