<svg width="14" height="14" viewBox="0 0 14 14" fill="none" xmlns="http://www.w3.org/2000/svg">
<path d="M4.6377 7.00208H12.9064" stroke="#E1404D" stroke-width="1.25" stroke-linecap="round" stroke-linejoin="round"/>
<path d="M10.9376 8.97083L12.9064 7.00208L10.9376 5.03333" stroke="#E1404D" stroke-width="1.25" stroke-linecap="round" stroke-linejoin="round"/>
<path d="M8.96905 9.36255V11.725C8.97805 11.9243 8.90776 12.119 8.77356 12.2666C8.63936 12.4142 8.45218 12.5026 8.25295 12.5125H1.80963C1.6105 12.5025 1.42345 12.414 1.28936 12.2664C1.15528 12.1189 1.08506 11.9242 1.09405 11.725V2.27505C1.08492 2.07583 1.15509 1.88111 1.2892 1.73352C1.42332 1.58592 1.61045 1.49748 1.80963 1.48755H8.25295C8.45218 1.49748 8.63936 1.5859 8.77356 1.73348C8.90776 1.88106 8.97805 2.07578 8.96905 2.27505V4.63755" stroke="#E1404D" stroke-width="1.25" stroke-linecap="round" stroke-linejoin="round"/>
</svg>
