<svg width="14" height="14" viewBox="0 0 14 14" fill="none" xmlns="http://www.w3.org/2000/svg">
<path d="M7.39375 1.09376C6.41137 1.09234 5.44651 1.35385 4.5993 1.85115C3.75208 2.34844 3.05339 3.0634 2.57572 3.92183C2.09805 4.78027 1.85881 5.75089 1.88283 6.73298C1.90686 7.71506 2.19326 8.67283 2.71232 9.50688L1.09375 12.9063L4.4926 11.2877C5.21747 11.7384 6.03709 12.0146 6.88689 12.0945C7.73669 12.1745 8.59344 12.056 9.38965 11.7484C10.1859 11.4408 10.8998 10.9526 11.4751 10.3221C12.0505 9.6916 12.4716 8.93612 12.7052 8.11517C12.9388 7.29422 12.9787 6.43022 12.8215 5.59127C12.6643 4.75231 12.3145 3.96131 11.7996 3.28059C11.2846 2.59986 10.6186 2.04802 9.85408 1.66853C9.08953 1.28905 8.2473 1.09229 7.39375 1.09376V1.09376Z" stroke="#1D352A" stroke-width="1.25" stroke-linecap="round" stroke-linejoin="round"/>
</svg>
