<svg width="16" height="16" viewBox="0 0 16 16" fill="none" xmlns="http://www.w3.org/2000/svg">
<path d="M1.25 8C1.25 9.79021 1.96116 11.5071 3.22703 12.773C4.4929 14.0388 6.20979 14.75 8 14.75C9.79021 14.75 11.5071 14.0388 12.773 12.773C14.0388 11.5071 14.75 9.79021 14.75 8C14.75 6.20979 14.0388 4.4929 12.773 3.22703C11.5071 1.96116 9.79021 1.25 8 1.25C6.20979 1.25 4.4929 1.96116 3.22703 3.22703C1.96116 4.4929 1.25 6.20979 1.25 8Z" fill="white" stroke="white" stroke-width="1.25" stroke-miterlimit="10"/>
<path d="M6.20007 6.20005C6.20014 5.87006 6.29091 5.54645 6.46247 5.26457C6.63403 4.98269 6.87977 4.75339 7.17284 4.60174C7.46591 4.45009 7.79503 4.38192 8.12423 4.40468C8.45343 4.42744 8.77003 4.54026 9.03944 4.7308C9.30886 4.92134 9.52071 5.18227 9.65184 5.48508C9.78297 5.78789 9.82834 6.12092 9.78299 6.44777C9.73764 6.77462 9.60332 7.08272 9.39469 7.33839C9.18607 7.59405 8.91118 7.78745 8.60007 7.89745C8.42453 7.95951 8.27255 8.0745 8.16509 8.22655C8.05763 8.37861 7.99998 8.56025 8.00007 8.74645V9.35005" stroke="#0F241B" stroke-width="1.25" stroke-linecap="round" stroke-linejoin="round"/>
<path d="M8.00002 11.1501C7.95552 11.1501 7.91202 11.1633 7.87502 11.1881C7.83802 11.2128 7.80918 11.2479 7.79215 11.289C7.77512 11.3302 7.77067 11.3754 7.77935 11.419C7.78803 11.4627 7.80946 11.5028 7.84093 11.5342C7.87239 11.5657 7.91248 11.5871 7.95613 11.5958C7.99977 11.6045 8.04501 11.6 8.08613 11.583C8.12724 11.566 8.16238 11.5372 8.18711 11.5001C8.21183 11.4631 8.22502 11.4196 8.22502 11.3751C8.22502 11.3155 8.20132 11.2582 8.15912 11.216C8.11693 11.1739 8.0597 11.1501 8.00002 11.1501Z" stroke="#0F241B" stroke-width="1.25" stroke-linecap="round" stroke-linejoin="round"/>
</svg>
