<svg width="18" height="18" viewBox="0 0 18 18" fill="none" xmlns="http://www.w3.org/2000/svg">
<path d="M9 12.4375C8.95055 12.4375 8.90222 12.4522 8.86111 12.4796C8.82 12.5071 8.78795 12.5461 8.76903 12.5918C8.75011 12.6375 8.74516 12.6878 8.7548 12.7363C8.76445 12.7848 8.78826 12.8293 8.82322 12.8643C8.85819 12.8992 8.90273 12.923 8.95123 12.9327C8.99972 12.9423 9.04999 12.9374 9.09567 12.9185C9.14135 12.8995 9.1804 12.8675 9.20787 12.8264C9.23534 12.7853 9.25 12.7369 9.25 12.6875C9.25 12.6212 9.22366 12.5576 9.17678 12.5107C9.12989 12.4638 9.0663 12.4375 9 12.4375Z" stroke="#4B6358" stroke-width="1.125" stroke-linecap="round" stroke-linejoin="round"/>
<path d="M9 10V5" stroke="#FAB900" stroke-width="1.125" stroke-miterlimit="10" stroke-linecap="round"/>
<path d="M1 9C1 11.1217 1.84285 13.1566 3.34315 14.6569C4.84344 16.1571 6.87827 17 9 17C11.1217 17 13.1566 16.1571 14.6569 14.6569C16.1571 13.1566 17 11.1217 17 9C17 6.87827 16.1571 4.84344 14.6569 3.34315C13.1566 1.84285 11.1217 1 9 1C6.87827 1 4.84344 1.84285 3.34315 3.34315C1.84285 4.84344 1 6.87827 1 9V9Z" stroke="#FAB900" stroke-width="1.125" stroke-miterlimit="10"/>
</svg>
