<svg width="14" height="10" viewBox="0 0 14 10" fill="none" xmlns="http://www.w3.org/2000/svg">
<path d="M8.85625 0.673555C8.61719 0.90793 8.61719 1.29699 8.85156 1.53606L11.7016 4.39074H0.854688C0.521875 4.39074 0.25 4.66262 0.25 5.00012C0.25 5.33762 0.521875 5.60949 0.854688 5.60949H11.6969L8.84687 8.46418C8.6125 8.70324 8.61719 9.08762 8.85156 9.32668C9.09062 9.56106 9.47031 9.56106 9.70937 9.32199L13.5719 5.43137C13.6234 5.37512 13.6656 5.31418 13.6984 5.23918C13.7312 5.16418 13.7453 5.08449 13.7453 5.00481C13.7453 4.84543 13.6844 4.69543 13.5719 4.57824L9.70937 0.687618C9.47969 0.443868 9.09531 0.43918 8.85625 0.673555Z" />
</svg>
