<svg width="88" height="88" viewBox="0 0 88 88" fill="none" xmlns="http://www.w3.org/2000/svg">
<g filter="url(#filter0_d_1642_3706)">
<circle cx="44" cy="44" r="24" fill="#03A84E"/>
</g>
<path fill-rule="evenodd" clip-rule="evenodd" d="M46.7064 42.339C46.3994 42.3401 46.0952 42.2806 45.8113 42.1639C45.7326 42.1322 45.6559 42.0955 45.5819 42.054C45.3584 42.3994 45.1799 42.7719 45.0506 43.1625C44.9718 43.4484 45.0506 54 45.0506 54H43.7055L43.6471 43.6201L43.6449 43.4487C43.5907 42.9493 43.4003 42.4743 43.0944 42.0757C42.9608 42.2322 42.8 42.3634 42.6199 42.463C42.3109 42.6364 41.9618 42.7258 41.6075 42.7222C41.5685 42.7222 41.5287 42.7222 41.4895 42.7194L41.3489 42.7128H41.315C40.9575 42.7171 40.6017 42.6634 40.2614 42.5537C39.8241 42.3664 39.4363 42.0802 39.1284 41.7176C38.829 41.3978 38.529 41.0981 38.1847 40.7761C37.7155 40.3353 37.2074 39.9377 36.6667 39.5882C36.2376 39.3109 35.7889 39.0653 35.3241 38.8532C34.8985 38.6529 34.4553 38.4927 34 38.3746C34.4509 38.0038 34.9361 37.6769 35.449 37.3982C35.9448 37.1223 36.4665 36.8957 37.0066 36.7219C37.6151 36.525 38.2501 36.4221 38.8896 36.4165C39.6938 36.4129 40.487 36.6043 41.201 36.9742C41.8373 37.2856 42.4115 37.7101 42.8958 38.2271C43.232 38.5939 43.4771 39.0347 43.6113 39.5138C43.7386 39.9973 43.7386 40.5054 43.6113 40.9889C43.5904 41.0767 43.5649 41.1636 43.5347 41.2493C43.8385 41.6369 44.1124 42.0469 44.3542 42.4758C44.5107 42.1095 44.6821 41.7502 44.8686 41.3981C44.7192 41.2055 44.5881 40.9994 44.4772 40.7824C44.1974 40.2528 44.0594 39.6599 44.0764 39.0613C44.1035 38.4659 44.2706 37.8853 44.5641 37.3665C44.9892 36.6329 45.5445 35.9829 46.2027 35.4483C47.3669 34.4763 48.8456 33.9621 50.3617 34.0022C50.9573 34.0049 51.5513 34.0648 52.1355 34.1811C52.6354 34.2793 53.1281 34.4108 53.6105 34.5746C54.0843 34.7312 54.5459 34.9225 54.9914 35.1471C54.4918 35.4072 54.0175 35.7134 53.5748 36.0616C53.0894 36.4342 52.6319 36.8417 52.2058 37.2809C51.6687 37.8343 51.1826 38.4351 50.7537 39.076C50.4398 39.5468 50.1696 39.9774 49.9063 40.4305C49.6448 40.9366 49.2693 41.3751 48.8094 41.7113C48.3761 41.9573 47.9074 42.1346 47.4198 42.237C47.1878 42.3038 46.9478 42.3381 46.7064 42.339ZM43.0009 40.6242C43.054 40.3198 43.0382 40.0074 42.9548 39.71C42.8453 39.3212 42.6468 38.9634 42.3748 38.6649C41.9776 38.2371 41.5052 37.8861 40.981 37.6292C40.3395 37.2995 39.6276 37.1301 38.9062 37.1355C38.4693 37.1377 38.034 37.1904 37.6091 37.2925C37.2462 37.3789 36.8907 37.4943 36.5462 37.6377C36.2046 37.7761 35.8758 37.9442 35.5635 38.1398H35.5657C35.8936 38.2795 36.2123 38.4399 36.5198 38.62C37.2768 39.057 37.9815 39.5791 38.62 40.176C38.8767 40.417 39.0996 40.6399 39.3224 40.8778C40.1001 41.7079 40.7435 41.9363 41.1467 41.9812C41.2179 41.9892 41.2895 41.9933 41.3611 41.9935C41.684 41.9952 42.001 41.9069 42.2766 41.7386C42.3863 41.6734 42.4878 41.5951 42.5788 41.5054L42.5719 41.4982C42.2481 41.1325 41.8987 40.7902 41.5265 40.4739C41.2562 40.2528 40.9465 40.0848 40.6138 39.9786C40.3709 39.895 40.1353 39.7916 39.9093 39.6695L40.4883 38.8676C41.3063 39.1949 42.0515 39.6809 42.6808 40.2975C42.79 40.4044 42.8967 40.5133 43.0009 40.6242ZM46.895 41.4088C46.621 41.4111 46.3494 41.3577 46.0966 41.2519C46.1613 41.1499 46.23 41.0394 46.3044 40.9192C46.884 39.9923 47.559 39.1287 48.3183 38.3423L47.5691 37.7058C46.8097 38.5062 46.1229 39.3726 45.5169 40.2947C45.4481 40.4003 45.3807 40.5069 45.3148 40.6145C45.0184 40.1733 44.8713 39.6487 44.8952 39.1178C44.9178 38.6345 45.0529 38.1631 45.2897 37.7413C45.6377 37.1353 46.0943 36.5987 46.6367 36.1583C47.193 35.687 47.8407 35.336 48.5392 35.1273C49.1572 34.9449 49.7987 34.8545 50.443 34.859C51.0793 34.862 51.7134 34.9357 52.3335 35.0786C52.5939 35.1365 52.8505 35.2099 53.1021 35.2983C52.7556 35.5494 52.4258 35.8229 52.1151 36.1171C51.3492 36.831 50.6675 37.6301 50.0833 38.4989C49.8486 38.8497 49.6483 39.1699 49.4531 39.5069C49.0765 40.1575 48.452 40.9945 47.6212 41.2858C47.388 41.3686 47.1425 41.4112 46.895 41.4119V41.4088Z" fill="white"/>
<defs>
<filter id="filter0_d_1642_3706" x="0" y="0" width="88" height="88" filterUnits="userSpaceOnUse" color-interpolation-filters="sRGB">
<feFlood flood-opacity="0" result="BackgroundImageFix"/>
<feColorMatrix in="SourceAlpha" type="matrix" values="0 0 0 0 0 0 0 0 0 0 0 0 0 0 0 0 0 0 127 0" result="hardAlpha"/>
<feOffset/>
<feGaussianBlur stdDeviation="10"/>
<feComposite in2="hardAlpha" operator="out"/>
<feColorMatrix type="matrix" values="0 0 0 0 0.89125 0 0 0 0 0.95875 0 0 0 0 0.921932 0 0 0 0.8 0"/>
<feBlend mode="normal" in2="BackgroundImageFix" result="effect1_dropShadow_1642_3706"/>
<feBlend mode="normal" in="SourceGraphic" in2="effect1_dropShadow_1642_3706" result="shape"/>
</filter>
</defs>
</svg>
