<svg width="792" height="1765" viewBox="0 0 792 1765" fill="none" xmlns="http://www.w3.org/2000/svg">
<path fill-rule="evenodd" clip-rule="evenodd" d="M0 20.4208C10.3994 20.4208 18.8476 29.8545 18.8476 41.5171C18.8476 53.1572 10.4195 62.6133 0 62.6133V82.6515C10.3994 82.6515 18.8476 92.0851 18.8476 103.748C18.8476 115.388 10.4195 124.844 0 124.844V144.882C10.3994 144.882 18.8476 154.316 18.8476 165.978C18.8476 177.618 10.4195 187.075 0 187.075V207.113C10.3994 207.113 18.8476 216.546 18.8476 228.209C18.8476 239.849 10.4195 249.305 0 249.305V269.343C10.3994 269.343 18.8476 278.777 18.8476 290.44C18.8476 302.102 10.3994 311.401 0 311.401V331.439C10.3994 331.439 18.8476 340.872 18.8476 352.535C18.8476 364.175 10.4195 373.631 0 373.631V374.086V394.007V394.506C10.3994 394.506 18.8476 403.94 18.8476 415.603C18.8476 427.243 10.4195 436.699 0 436.699V456.737C10.3994 456.737 18.8476 466.171 18.8476 477.833C18.8476 489.473 10.4195 498.93 0 498.93V518.968C10.3994 518.968 18.8476 528.401 18.8476 540.064C18.8476 551.704 10.4195 561.16 0 561.16V581.198C10.3994 581.198 18.8476 590.632 18.8476 602.295C18.8476 613.935 10.4195 623.391 0 623.391V643.429C10.3994 643.429 18.8476 652.863 18.8476 664.525C18.8476 676.188 10.3994 685.486 0 685.486V705.524C10.3994 705.524 18.8476 714.958 18.8476 726.621C18.8476 738.261 10.4195 747.717 0 747.717V748.171V768.093V768.592C10.3994 768.592 18.8476 778.025 18.8476 789.688C18.8476 801.328 10.4195 810.784 0 810.784V830.822C10.3994 830.822 18.8476 840.256 18.8476 851.918C18.8476 863.558 10.4195 873.015 0 873.015V893.053C10.3994 893.053 18.8476 902.486 18.8476 914.149C18.8476 925.789 10.4195 935.245 0 935.245V955.283C10.3994 955.283 18.8476 964.717 18.8476 976.38C18.8476 988.02 10.4195 997.476 0 997.476V1017.51C10.3994 1017.51 18.8476 1026.95 18.8476 1038.61C18.8476 1050.27 10.3994 1059.57 0 1059.57V1079.61C10.3994 1079.61 18.8476 1089.04 18.8476 1100.71C18.8476 1112.35 10.4195 1121.8 0 1121.8V1122.26V1142.18V1142.68C10.3994 1142.68 18.8476 1152.11 18.8476 1163.77C18.8476 1175.41 10.4195 1184.87 0 1184.87V1204.91C10.3994 1204.91 18.8476 1214.34 18.8476 1226C18.8476 1237.64 10.4195 1247.1 0 1247.1V1267.14C10.3994 1267.14 18.8476 1276.57 18.8476 1288.24C18.8476 1299.88 10.4195 1309.33 0 1309.33V1329.37C10.3994 1329.37 18.8476 1338.8 18.8476 1350.47C18.8476 1360.43 12.677 1368.79 4.36821 1370.99H0V1371.56V1391.41V1391.6C10.3716 1391.6 18.8024 1400.98 18.8474 1412.6C18.8025 1424.2 10.3916 1433.61 0 1433.61V1433.66V1453.64V1453.7C10.3917 1453.7 18.8352 1463.12 18.8476 1474.77C18.8352 1486.39 10.4118 1495.84 0 1495.84V1495.89V1515.87V1516.26H3.6206C12.2913 1518.15 18.8476 1526.7 18.8476 1536.97C18.8476 1548.61 10.4195 1558.07 0 1558.07V1578.11C10.3994 1578.11 18.8476 1587.54 18.8476 1599.2C18.8476 1610.84 10.4195 1620.3 0 1620.3V1640.34C10.3994 1640.34 18.8476 1649.77 18.8476 1661.43C18.8476 1673.09 10.3994 1682.39 0 1682.39V1702.43C10.3994 1702.43 18.8476 1711.87 18.8476 1723.53C18.8476 1735.17 10.4195 1744.62 0 1744.62V1765H792V1744.58C781.601 1744.58 773.152 1735.15 773.152 1723.48C773.152 1711.84 781.581 1702.39 792 1702.39V1682.35C781.601 1682.35 773.152 1672.91 773.152 1661.25C773.152 1649.59 781.581 1640.16 792 1640.16V1620.12C781.601 1620.12 773.152 1610.68 773.152 1599.02C773.152 1587.38 781.581 1577.93 792 1577.93V1557.89C781.601 1557.89 773.152 1548.45 773.152 1536.79C773.152 1526.83 779.323 1518.47 787.632 1516.26H792V1515.69V1495.84V1495.66C781.628 1495.66 773.198 1486.27 773.153 1474.65C773.198 1463.06 781.609 1453.65 792 1453.65V1453.46V1433.61V1433.43C781.628 1433.43 773.198 1424.04 773.153 1412.42C773.198 1400.8 781.608 1391.42 792 1391.42V1391.23V1371.38V1370.99H788.379C779.709 1369.1 773.152 1360.56 773.152 1350.29C773.152 1338.65 781.581 1329.19 792 1329.19V1309.15C781.601 1309.15 773.152 1299.72 773.152 1288.05C773.152 1276.41 781.581 1266.96 792 1266.96V1246.92C781.601 1246.92 773.152 1237.49 773.152 1225.82C773.152 1214.18 781.581 1204.73 792 1204.73V1184.69C781.601 1184.69 773.152 1175.26 773.152 1163.59C773.152 1151.95 781.581 1142.5 792 1142.5V1142.18V1122.26V1121.76C781.601 1121.76 773.152 1112.32 773.152 1100.66C773.152 1089.02 781.581 1079.56 792 1079.56V1059.53C781.601 1059.53 773.152 1050.09 773.152 1038.43C773.152 1026.77 781.581 1017.33 792 1017.33V997.296C781.601 997.296 773.152 987.862 773.152 976.2C773.152 964.559 781.581 955.103 792 955.103V935.065C781.601 935.065 773.152 925.632 773.152 913.969C773.152 902.329 781.581 892.873 792 892.873V872.835C781.601 872.835 773.152 863.401 773.152 851.738C773.152 840.098 781.581 830.642 792 830.642V810.604C781.601 810.604 773.152 801.17 773.152 789.508C773.152 777.868 781.581 768.411 792 768.411V768.093V748.171V747.672C781.601 747.672 773.152 738.238 773.152 726.576C773.152 714.936 781.581 705.479 792 705.479V685.441C781.601 685.441 773.152 676.008 773.152 664.345C773.152 652.682 781.581 643.249 792 643.249V623.211C781.601 623.211 773.152 613.777 773.152 602.114C773.152 590.474 781.581 581.018 792 581.018V560.98C781.601 560.98 773.152 551.546 773.152 539.884C773.152 528.244 781.581 518.788 792 518.788V498.749C781.601 498.749 773.152 489.316 773.152 477.653C773.152 466.013 781.581 456.557 792 456.557V436.519C781.601 436.519 773.152 427.085 773.152 415.423C773.152 403.782 781.581 394.326 792 394.326V374.086L792 373.586C781.601 373.586 773.152 364.153 773.152 352.49C773.152 340.85 781.581 331.394 792 331.394V311.356C781.601 311.356 773.152 301.922 773.152 290.259C773.152 278.597 781.581 269.163 792 269.163V249.125C781.601 249.125 773.152 239.691 773.152 228.029C773.152 216.389 781.581 206.933 792 206.933V186.894C781.601 186.894 773.152 177.461 773.152 165.798C773.152 154.158 781.581 144.702 792 144.702V124.664C781.601 124.664 773.152 115.23 773.152 103.568C773.152 91.9275 781.581 82.4713 792 82.4713V62.4332C781.601 62.4332 773.152 52.9996 773.152 41.337C773.152 29.6969 781.581 20.2407 792 20.2407V0H0V20.4208Z" fill="white"/>
</svg>
