 <svg
              width="253"
              height="213"
              viewBox="0 0 253 213"
              fill="none"
              xmlns="http://www.w3.org/2000/svg"
            >
              <path
                fill-rule="evenodd"
                clip-rule="evenodd"
                d="M252.991 160.85C252.997 160.567 253 160.284 253 160C253 137.909 235.048 120 212.902 120C192.563 120 175.761 135.106 173.156 154.686C173.555 154.873 173.946 155.071 174.328 155.277C175.994 156.174 177.579 157.265 179.02 158.279C179.251 158.441 179.477 158.601 179.7 158.759L179.708 158.764C180.939 159.633 182.085 160.442 183.29 161.192C186.084 162.932 188.736 164.051 191.795 164.051C195.405 164.051 197.823 163.395 199.631 162.541C201.483 161.667 202.922 160.484 204.572 159.009C204.748 158.851 204.93 158.687 205.117 158.518L205.117 158.518L205.117 158.518C206.579 157.198 208.375 155.576 210.561 154.331C213.182 152.837 216.28 151.899 220.288 151.899C224.283 151.899 227.443 152.83 230.097 154.316C232.656 155.748 234.595 157.625 236.136 159.132L236.156 159.151C239.293 162.217 241.17 164.051 245.316 164.051C247.485 164.051 249.282 163.34 251.105 162.181C251.736 161.78 252.354 161.335 252.991 160.85ZM251.452 171.043C249.646 171.716 247.614 172.152 245.316 172.152C237.827 172.152 233.828 168.229 230.802 165.261C230.684 165.145 230.568 165.031 230.453 164.919C228.886 163.387 227.634 162.226 226.123 161.381C224.707 160.588 222.918 160 220.288 160C217.671 160 215.965 160.581 214.589 161.365C213.216 162.148 212.093 163.156 210.548 164.543C210.369 164.704 210.184 164.87 209.992 165.042C208.244 166.605 206.079 168.46 203.106 169.864C200.089 171.288 196.463 172.152 191.795 172.152C186.574 172.152 182.392 170.183 178.99 168.065C177.568 167.179 176.202 166.215 174.977 165.349L174.974 165.347C174.759 165.195 174.547 165.045 174.341 164.9C173.875 164.572 173.429 164.262 173 163.972C174.999 184.198 192.101 200 212.902 200C231.208 200 246.648 187.764 251.452 171.043Z"
                fill="#FFF3EB"
              />
              <path
                d="M8.99999 212H205C209.418 212 213 208.418 213 204V84.9551C213 82.4624 211.838 80.1121 209.857 78.5986L111.857 3.71177C108.99 1.52052 105.01 1.52052 102.143 3.71177L4.14263 78.5986C2.16196 80.1121 1 82.4624 1 84.9551V204C1 208.418 4.58172 212 8.99999 212Z"
                fill="#61DB98"
                stroke="#21312A"
              />
              <path
                d="M51 30H163C167.418 30 171 33.5817 171 38V190C171 194.418 167.418 198 163 198H51C46.5817 198 43 194.418 43 190V38C43 33.5817 46.5817 30 51 30Z"
                fill="white"
                stroke="#A2F0C5"
              />
              <path
                fill-rule="evenodd"
                clip-rule="evenodd"
                d="M107.621 51.3012C107.316 51.3023 107.014 51.2431 106.732 51.1269C106.654 51.0953 106.578 51.0587 106.505 51.0175C106.272 51.3869 106.055 51.8366 105.977 52.1213C105.898 52.406 105.977 62.9124 105.977 62.9124H104.641V61.6893C104.016 62.563 103.028 62.9998 101.896 62.9998C99.6443 62.9998 98.0029 61.4128 98.0029 59.0537C98.0029 56.6947 99.6442 55.1221 101.896 55.1221C102.985 55.1221 103.944 55.5298 104.583 56.3598V52.5767L104.58 52.406C104.526 51.9066 104.336 51.4341 104.034 51.0389C103.901 51.1943 103.742 51.3251 103.562 51.4245C103.256 51.5972 102.909 51.6863 102.557 51.6827C102.518 51.6827 102.478 51.6817 102.439 51.6797C102.392 51.6773 102.345 51.6752 102.3 51.6731C102.288 51.6726 102.277 51.6721 102.266 51.6716C101.911 51.6759 101.557 51.6223 101.219 51.513C100.854 51.376 100.496 51.1116 100.094 50.6807C99.7964 50.3622 99.4985 50.0639 99.1563 49.7418C98.6904 49.303 98.1858 48.9072 97.6486 48.5591C97.2225 48.2831 96.7768 48.0385 96.3151 47.8273C95.8925 47.6279 95.4523 47.4683 95 47.3506L95.0015 47.3491C95.4492 46.9801 95.9311 46.6546 96.4407 46.3771C96.9328 46.1039 97.4506 45.8798 97.9866 45.708C98.591 45.5119 99.2219 45.4094 99.8573 45.4039C100.656 45.4005 101.444 45.5912 102.153 45.9595C102.785 46.2699 103.355 46.6926 103.835 47.207C104.169 47.5722 104.412 48.0105 104.545 48.4868C104.671 48.9681 104.671 49.4736 104.544 49.9547C104.522 50.0422 104.497 50.1287 104.468 50.2139C104.77 50.6003 105.043 51.0097 105.285 51.4387C105.44 51.0739 105.61 50.7158 105.796 50.3656C105.647 50.1741 105.517 49.9689 105.407 49.7526C105.129 49.225 104.992 48.6347 105.009 48.0388C105.036 47.4466 105.202 46.8691 105.493 46.3527C105.915 45.6226 106.467 44.9753 107.121 44.4426C108.244 43.4853 109.635 43 111.252 43C111.844 43.0028 112.434 43.0624 113.014 43.1782C113.51 43.2761 113.999 43.4071 114.478 43.5701C114.949 43.7261 115.408 43.9166 115.85 44.1403C115.354 44.3994 114.883 44.7043 114.443 45.051C113.961 45.4221 113.507 45.8279 113.084 46.2651C112.55 46.8163 112.067 47.4146 111.641 48.0525C111.328 48.5214 111.061 48.9501 110.8 49.4013C110.446 50.0131 110.1 50.4177 109.71 50.6766C109.294 50.953 108.804 51.0647 108.33 51.1997C108.1 51.2662 107.861 51.3003 107.621 51.3012ZM103.941 49.5953C103.993 49.2951 103.978 48.9842 103.895 48.6851C103.786 48.2983 103.589 47.942 103.319 47.6444C102.924 47.2187 102.455 46.8691 101.934 46.6131C101.297 46.2848 100.59 46.1161 99.8733 46.1215C99.4393 46.1237 99.0069 46.1761 98.585 46.2777C98.2244 46.3637 97.8713 46.4786 97.5291 46.6213C97.1898 46.759 96.8633 46.9262 96.5531 47.1208L96.5554 47.1216C96.8811 47.2608 97.1977 47.4205 97.5031 47.5999C98.2553 48.0352 98.9553 48.555 99.5893 49.1491C99.8441 49.3891 100.066 49.6111 100.287 49.8479C101.059 50.6746 101.698 50.902 102.099 50.9467C102.17 50.9546 102.241 50.9587 102.312 50.9587C102.633 50.9604 102.948 50.8726 103.221 50.705C103.33 50.6399 103.431 50.5619 103.521 50.473C103.519 50.4706 103.517 50.4681 103.514 50.4657L103.514 50.4654C103.182 50.1075 102.829 49.7272 102.476 49.4452C102.099 49.1455 101.855 49.0562 101.569 48.952C101.374 48.8805 101.159 48.8021 100.87 48.6442L101.445 47.8459C101.445 47.8459 102.558 48.2346 103.622 49.2683C103.731 49.3748 103.837 49.4839 103.941 49.5953ZM107.809 50.378C107.534 50.3801 107.264 50.3258 107.016 50.2211C107.08 50.1195 107.148 50.0096 107.222 49.8899C108.124 48.4211 109.222 47.324 109.222 47.324L108.478 46.6905C108.478 46.6905 107.269 47.9448 106.44 49.2683C106.372 49.3735 106.305 49.4797 106.239 49.5867C105.946 49.1492 105.798 48.6268 105.822 48.0946C105.844 47.6136 105.979 47.1444 106.214 46.7241C106.559 46.1208 107.013 45.5861 107.552 45.1468C108.104 44.6778 108.748 44.3282 109.442 44.1201C110.056 43.9385 110.693 43.8485 111.333 43.853C111.965 43.8558 112.595 43.929 113.21 44.0712C113.469 44.1288 113.724 44.2019 113.974 44.29C113.63 44.5401 113.302 44.8124 112.994 45.1053C112.233 45.8165 111.555 46.6122 110.975 47.4769C110.742 47.8262 110.543 48.1452 110.349 48.4807C109.975 49.1287 109.355 49.962 108.53 50.2519C108.298 50.3345 108.054 50.3772 107.809 50.378ZM99.4117 59.0537C99.4117 60.6992 100.53 61.7767 102.012 61.7767C103.478 61.7767 104.597 60.6993 104.597 59.0537C104.597 57.4081 103.479 56.3452 102.012 56.3452C100.53 56.3452 99.4117 57.4083 99.4117 59.0537Z"
                fill="#03A84E"
              />
              <path
                fill-rule="evenodd"
                clip-rule="evenodd"
                d="M91.5396 60.1021C91.9317 61.165 92.8904 61.7767 94.1831 61.7767C95.0836 61.7767 95.8389 61.4709 96.4054 60.8449L97.1606 61.7477C96.4779 62.5631 95.4176 63 94.1395 63C91.6558 63 90 61.3538 90 59.0537C90 56.768 91.6267 55.1221 93.8634 55.1221C95.9695 55.1221 97.6107 56.608 97.6543 58.9081L91.5396 60.1021ZM96.2746 58.1945C96.0277 57.0878 95.1127 56.3015 93.8636 56.3015C92.3965 56.3015 91.3508 57.3646 91.3508 58.9809V59.1266L96.2746 58.1945Z"
                fill="#03A84E"
              />
              <path
                fill-rule="evenodd"
                clip-rule="evenodd"
                d="M108.562 60.1021C108.954 61.165 109.913 61.7767 111.206 61.7767C112.106 61.7767 112.862 61.4709 113.428 60.8449L114.183 61.7477C113.5 62.5631 112.44 63 111.162 63C108.678 63 107.023 61.3538 107.023 59.0537C107.023 56.7675 108.649 55.1221 110.886 55.1221C112.992 55.1221 114.633 56.608 114.677 58.9081L108.562 60.1021ZM113.297 58.1945C113.05 57.0878 112.135 56.3015 110.886 56.3015C109.419 56.3015 108.374 57.3646 108.374 58.9808V59.1264L113.297 58.1945Z"
                fill="#03A84E"
              />
              <path
                d="M117.074 56.3598C117.64 55.5735 118.628 55.1221 119.848 55.1221C121.722 55.1221 123.043 56.1997 123.043 58.4712V62.9126H121.649V58.6315C121.649 57.117 120.894 56.3744 119.572 56.3744C118.091 56.3744 117.132 57.2626 117.132 58.9372V62.9126H115.738V55.1944H117.074V56.3598Z"
                fill="#03A84E"
              />
              <rect x="63" y="89" width="88" height="6" rx="3" fill="#E4E8E6" />
              <rect x="63" y="75" width="88" height="6" rx="3" fill="#E4E8E6" />
              <rect
                x="63"
                y="103"
                width="88"
                height="6"
                rx="3"
                fill="#E4E8E6"
              />
              <rect
                x="63"
                y="117"
                width="88"
                height="6"
                rx="3"
                fill="#E4E8E6"
              />
              <rect
                x="63"
                y="131"
                width="88"
                height="6"
                rx="3"
                fill="#E4E8E6"
              />
              <path
                d="M1.5 204V85.8148C1.5 79.3434 9.14597 75.9098 13.9827 80.2092L146.941 198.394C152.096 202.976 148.855 211.5 141.958 211.5H9C4.85786 211.5 1.5 208.142 1.5 204Z"
                fill="#A2F0C5"
                stroke="#21312A"
              />
              <path
                d="M212.5 204V85.8148C212.5 79.3434 204.854 75.9098 200.017 80.2092L67.0589 198.394C61.9044 202.976 65.1452 211.5 72.0416 211.5H205C209.142 211.5 212.5 208.142 212.5 204Z"
                fill="#DEFFEF"
                stroke="#21312A"
              />
            </svg>