<svg width="20" height="20" viewBox="0 0 20 20" fill="none" xmlns="http://www.w3.org/2000/svg">
<path d="M10.0349 1.6665C5.41332 1.6665 1.66669 5.41313 1.66669 10.0347C1.66669 14.1798 4.6836 17.6125 8.63926 18.2773V11.7806H6.6206V9.44267H8.63926V7.71879C8.63926 5.7186 9.86091 4.62861 11.6455 4.62861C12.5002 4.62861 13.2347 4.6923 13.4479 4.72035V6.81108L12.2102 6.81168C11.2399 6.81168 11.0528 7.27267 11.0528 7.94938V9.44147H13.3681L13.0661 11.7794H11.0528V18.3332C15.1932 17.8293 18.403 14.309 18.403 10.0323C18.403 5.41313 14.6564 1.6665 10.0349 1.6665Z" fill="#57645E"/>
</svg>
