<svg width="160" height="160" viewBox="0 0 160 160" fill="none" xmlns="http://www.w3.org/2000/svg">
<path d="M110.469 61.0938L94.0625 56.4062L89.375 40H56.5625C52.6792 40 49.5312 43.148 49.5312 47.0312V112.969C49.5312 116.852 52.6792 120 56.5625 120H103.438C107.321 120 110.469 116.852 110.469 112.969V61.0938Z" fill="#FFA89C"/>
<path d="M110.469 61.0938V112.969C110.469 116.852 107.321 120 103.438 120H80V40H89.375L94.0625 56.4062L110.469 61.0938Z" fill="#FF1F00"/>
<path d="M110.469 61.0938H94.0625C91.4844 61.0938 89.375 58.9844 89.375 56.4062V40C89.9844 40 90.5937 40.2344 91.0155 40.7033L109.765 59.4533C110.234 59.875 110.469 60.4844 110.469 61.0938Z" fill="#FFE8E5"/>
<path d="M91.6014 76.4013L71.714 96.2886C70.798 97.2047 69.3155 97.2047 68.3995 96.2886C67.4834 95.3726 67.4834 93.8901 68.3995 92.9741L88.2868 73.0867C89.2029 72.1707 90.6854 72.1707 91.6014 73.0867C92.5174 74.0027 92.5174 75.4852 91.6014 76.4013Z" fill="#FFF5F5"/>
<path d="M91.6014 92.9737L71.714 73.0864C70.798 72.1703 69.3155 72.1703 68.3995 73.0864C67.4834 74.0024 67.4834 75.4849 68.3995 76.4009L88.2868 96.2883C89.2029 97.2043 90.6854 97.2043 91.6014 96.2883C92.5174 95.3723 92.5174 93.8898 91.6014 92.9737Z" fill="#FFF5F5"/>
<circle cx="80" cy="80" r="79.5" stroke="#FFAC76"/>
</svg>
