<svg width="20" height="8" viewBox="0 0 20 8" fill="none" xmlns="http://www.w3.org/2000/svg">
  <defs>
      <symbol id="loading-icon">
<path d="M2 8C3.10457 8 4 7.10457 4 6C4 4.89543 3.10457 4 2 4C0.89543 4 0 4.89543 0 6C0 7.10457 0.89543 8 2 8Z" />
<path d="M10 4C11.1046 4 12 3.10457 12 2C12 0.89543 11.1046 0 10 0C8.89543 0 8 0.89543 8 2C8 3.10457 8.89543 4 10 4Z" />
<path d="M18 8C19.1046 8 20 7.10457 20 6C20 4.89543 19.1046 4 18 4C16.8954 4 16 4.89543 16 6C16 7.10457 16.8954 8 18 8Z" />
</symbol>
</defs>
</svg>
