<svg width="120" height="120" viewBox="0 0 120 120" fill="none" xmlns="http://www.w3.org/2000/svg">
<path opacity="0.6" fill-rule="evenodd" clip-rule="evenodd" d="M119.987 61.2745C119.995 60.8507 120 60.4259 120 60C120 26.8629 93.0715 0 59.8536 0C29.3449 0 4.14163 22.6597 0.233422 52.0284C0.832463 52.3091 1.41847 52.6061 1.99148 52.9149C4.4902 54.2616 6.86826 55.8981 9.03033 57.4187C9.3782 57.6634 9.72052 57.9051 10.0586 58.1437L10.0622 58.1463L10.0622 58.1463C11.9082 59.4496 13.6278 60.6636 15.4342 61.7884C19.6256 64.3984 23.6041 66.076 28.1915 66.076C33.607 66.076 37.2347 65.0928 39.9463 63.8122C42.7241 62.5003 44.8826 60.726 47.3571 58.5135C47.6216 58.277 47.8942 58.0309 48.175 57.7774C50.3684 55.7972 53.0628 53.3647 56.3404 51.4966C60.2732 49.2551 64.9202 47.8481 70.932 47.8481C76.9237 47.8481 81.6646 49.245 85.6452 51.4736C89.4833 53.6223 92.3915 56.4381 94.7037 58.6976L94.7331 58.7264C99.439 63.325 102.254 66.076 108.474 66.076C111.727 66.076 114.423 65.0102 117.158 63.2708C118.103 62.6695 119.03 62.0026 119.987 61.2745ZM117.679 76.5644C114.969 77.5744 111.92 78.2279 108.474 78.2279C97.2398 78.2279 91.2412 72.3433 86.7028 67.8913C86.5262 67.718 86.3517 67.5469 86.1793 67.3784C83.8282 65.0809 81.9501 63.3397 79.6835 62.0707C77.5594 60.8815 74.8771 60 70.932 60C67.0067 60 64.4472 60.8715 62.3835 62.0477C60.3234 63.2219 58.6389 64.7343 56.3214 66.815C56.0526 67.0564 55.7752 67.3054 55.4877 67.5624C52.8658 69.9069 49.6178 72.6896 45.1587 74.7954C40.6334 76.9326 35.194 78.2279 28.1915 78.2279C20.3612 78.2279 14.0878 75.275 8.98387 72.0969C6.85104 70.7688 4.80319 69.322 2.9645 68.023L2.96083 68.0204C2.63754 67.792 2.32071 67.5682 2.01102 67.3504C1.31156 66.8584 0.644011 66.3938 0 65.9575C2.99796 96.2978 28.6511 120 59.8536 120C87.3116 120 110.472 101.645 117.679 76.5644Z" fill="#FFAC76"/>
</svg>
