<svg width="1440" height="546" viewBox="0 0 1440 546" fill="none" xmlns="http://www.w3.org/2000/svg">
<mask id="mask0_2179_4730" style="mask-type:alpha" maskUnits="userSpaceOnUse" x="0" y="0" width="1440" height="666">
<rect width="1440" height="665.455" fill="white"/>
</mask>
<g mask="url(#mask0_2179_4730)">
<path fill-rule="evenodd" clip-rule="evenodd" d="M1081.96 362.136L1081.79 399.124H1080.58C1079.38 399.124 1078.01 400.147 1078.01 401.852C1078.01 402.704 1079.38 404.068 1080.58 404.068H1081.79L1081.27 449.579H1078.69C1076.97 449.579 1075.6 450.772 1075.6 452.477C1075.6 454.011 1076.97 455.545 1078.69 455.545H1081.27V471.738H1070.1V459.295V458.272V457.931V457.249V454.011H1071.47C1071.99 454.011 1072.85 453.499 1072.85 452.477C1072.85 451.965 1071.99 451.113 1071.47 451.113H1069.93C1070.61 448.897 1071.65 444.636 1069.76 440.374C1068.72 438.499 1067.01 436.795 1065.11 435.09C1062.88 433.215 1060.99 431.681 1059.1 430.999C1059.1 430.999 1059.1 430.658 1059.1 430.147C1059.44 429.806 1059.1 429.124 1058.75 428.613C1058.75 428.272 1058.24 427.761 1057.55 427.249C1057.04 426.738 1056.52 426.568 1056.18 426.056V425.034C1056.52 424.863 1056.52 424.863 1056.52 424.522C1056.52 424.522 1056.52 424.011 1056.35 423.84C1056.35 423.84 1056.18 423.67 1056 423.67V422.818C1056.18 422.477 1056.18 422.477 1056.18 422.477V421.795C1056.18 421.454 1056 421.454 1056 421.454V420.431L1055.49 414.124H1055.32H1054.97V420.431V421.283C1054.63 421.283 1054.63 421.283 1054.63 421.624C1054.63 421.624 1054.63 421.624 1054.63 422.306C1054.63 422.306 1054.63 422.306 1054.63 422.647V423.329C1054.63 423.329 1054.63 423.499 1054.46 423.499L1054.11 424.181C1054.11 424.522 1054.11 424.522 1054.46 424.693C1054.63 424.693 1054.63 424.693 1054.63 424.693V425.715C1054.11 426.227 1053.77 426.397 1053.25 426.908C1052.39 427.42 1051.88 427.931 1051.88 428.272C1051.54 428.954 1051.54 429.806 1051.54 430.147C1051.54 430.658 1051.54 430.829 1051.88 430.999C1050.16 431.852 1047.93 433.215 1045.69 435.09C1043.63 436.795 1041.91 438.499 1041.22 440.374C1039.16 444.636 1040.02 448.897 1040.88 451.113H1039.5C1038.99 451.113 1038.3 451.795 1038.3 452.477C1038.3 453.329 1038.99 454.011 1039.5 454.011H1040.53V457.931V471.738H1030.39V463.215V461.34L1030.57 460.658C1030.39 460.318 1030.39 460.147 1030.39 459.806V454.693H1032.28C1033.49 454.693 1034.52 453.67 1034.52 452.477C1034.52 451.454 1033.49 450.602 1032.28 450.602H1029.88C1030.74 446.852 1032.63 440.374 1029.36 433.556C1027.99 430.658 1025.41 427.761 1022.31 424.863C1018.88 422.647 1015.61 420.602 1012.69 418.897C1012.86 418.556 1012.86 417.874 1013.2 417.363C1013.2 416.681 1012.86 415.658 1012.69 414.806C1012.17 414.295 1011.49 413.272 1010.63 412.59C1009.77 411.908 1008.56 411.397 1008.39 410.886L1007.88 410.033C1008.39 409.352 1008.39 409.181 1008.56 409.181C1008.56 409.181 1008.56 408.84 1008.56 408.329C1008.56 408.329 1008.56 407.988 1008.39 407.306C1008.39 407.306 1008.39 407.306 1007.88 407.306L1007.7 406.113C1007.88 405.943 1008.39 405.943 1008.39 405.431C1008.39 405.261 1008.39 405.261 1008.39 404.92C1008.39 404.749 1008.39 404.408 1008.39 404.408C1007.88 404.238 1007.88 404.238 1007.7 403.897V402.363L1007.19 392.136C1007.19 392.136 1007.02 392.136 1006.84 392.136L1006.16 402.363V403.556C1006.16 403.727 1005.99 403.727 1005.99 404.068C1005.64 404.068 1005.64 404.408 1005.64 404.579C1005.64 404.92 1005.64 404.92 1005.64 405.09C1005.99 405.602 1005.99 405.602 1006.16 405.772V406.965C1005.99 406.965 1005.64 406.965 1005.3 406.965C1005.3 407.477 1005.3 407.988 1005.3 407.988C1005.3 408.499 1005.3 408.84 1005.3 408.84C1005.64 408.84 1005.64 409.181 1005.99 409.863V410.715C1005.13 411.227 1004.27 411.568 1003.06 412.42C1002.55 413.102 1001.69 414.124 1001.52 414.636C1001 415.488 1001 416.511 1001 417.193C1001 417.704 1001.17 418.386 1001.17 418.386C998.078 420.261 994.813 422.477 992.062 424.693C988.625 427.59 986.046 430.658 984.671 433.386C981.577 440.204 982.952 446.511 984.155 450.431H982.265C980.718 450.431 979.858 451.113 979.858 452.306C979.858 453.499 980.718 454.522 982.265 454.522H983.812V460.488V471.568H972.983V464.749H974.358C975.389 464.749 976.421 463.897 976.421 462.022C976.421 461.17 975.389 460.147 974.358 460.147H973.155C975.733 454.863 981.233 438.329 973.842 421.113C970.748 414.636 965.076 408.67 958.372 402.704C951.497 397.761 944.622 393.329 938.606 389.749C939.121 388.556 939.293 388.045 939.293 386.34C939.293 384.977 939.293 383.102 938.434 381.227C937.574 379.522 935.683 377.647 933.793 376.624C932.246 374.92 930.355 373.897 928.98 373.045V370.147C929.152 369.977 929.668 369.295 930.011 368.954C930.011 368.613 930.355 368.102 930.355 367.59C930.355 366.738 930.011 366.397 930.011 365.886C929.668 365.374 928.98 364.863 928.636 364.693V362.136C928.808 361.624 928.98 361.454 929.152 361.283C929.324 360.261 929.667 360.09 929.667 359.408C929.667 359.238 929.324 358.727 928.98 358.215C928.98 357.533 928.636 357.533 928.464 357.533V354.465L927.089 333.499C928.98 333.499 931.043 333.329 933.105 332.306C934.996 330.943 936.543 329.408 937.231 327.874C936.543 328.386 935.512 329.408 934.137 330.09C929.668 332.818 923.308 331.283 920.386 326.34C917.807 321.908 919.526 315.602 924.167 312.874C925.198 312.533 926.745 311.681 927.948 311.681C925.714 311.34 923.48 312.193 921.761 313.045C916.432 316.113 914.541 323.102 917.807 328.045C919.526 331.283 922.448 333.158 925.886 333.499L925.026 354.465L924.855 357.533C924.683 357.533 924.511 357.533 924.167 358.215C923.823 358.556 923.823 359.238 923.823 359.408C923.823 360.09 923.823 360.261 924.167 361.283C924.511 361.283 924.511 361.624 924.855 362.136L924.683 364.693C924.511 364.863 923.823 365.204 923.651 365.886C923.308 366.397 922.964 366.738 922.964 367.59C922.964 367.931 923.308 368.613 923.651 368.954C923.823 369.295 923.995 369.977 924.511 370.147V373.215C922.964 374.068 920.901 375.09 919.698 376.795C917.463 377.988 915.917 379.863 915.057 381.397C914.198 383.272 914.026 384.977 914.026 386.511C914.026 388.215 914.541 388.727 914.885 389.92C908.697 393.499 901.65 397.931 895.118 402.874C888.414 408.84 882.57 414.977 879.476 421.283C872.085 438.499 877.758 455.033 879.992 460.318H878.961C877.414 460.318 876.383 461.34 876.383 462.193C876.383 464.068 877.414 464.92 878.961 464.92H879.476V471.738H869.163V463.215V461.34V460.658C869.163 460.318 869.163 460.147 869.163 459.806V454.693H870.882C872.085 454.693 873.117 453.67 873.117 452.477C873.117 451.454 872.085 450.602 870.882 450.602H868.304C869.851 446.852 871.054 440.374 868.132 433.556C866.585 430.658 864.007 427.761 860.569 424.863C857.647 422.647 854.209 420.602 851.287 418.897C851.459 418.556 851.459 417.874 851.459 417.363C851.631 416.681 851.459 415.658 851.287 414.806C850.599 414.295 850.084 413.272 849.052 412.59C848.193 411.908 847.334 411.397 846.474 410.886V410.033C846.646 409.352 846.646 409.181 846.99 409.181C847.162 409.181 847.162 408.84 847.162 408.329C847.162 408.329 847.162 407.988 846.99 407.306C846.646 407.306 846.646 407.306 846.474 407.306L846.302 406.113C846.474 405.943 846.474 405.943 846.646 405.431C846.646 405.261 846.646 405.261 846.646 404.92C846.646 404.749 846.646 404.408 846.646 404.408C846.474 404.238 846.474 404.238 846.302 403.897V402.363L845.959 392.136H845.615C845.443 392.136 845.271 392.136 845.271 392.136L844.755 402.363V403.556C844.583 403.727 844.583 403.727 844.411 404.068C844.411 404.068 844.411 404.408 844.411 404.579C844.411 404.92 844.411 404.92 844.411 405.09C844.411 405.602 844.583 405.602 844.755 405.772V406.965C844.412 406.965 844.411 406.965 844.411 406.965C843.896 407.477 843.896 407.988 843.896 407.988C843.896 408.499 843.896 408.84 844.068 408.84C844.068 408.84 844.412 409.011 844.584 409.693L844.411 410.545C843.896 411.056 842.865 411.397 842.177 412.249C841.146 412.931 840.286 413.954 839.771 414.465C839.599 415.318 839.427 416.34 839.599 417.022C839.599 417.533 839.599 418.215 839.771 418.556C837.021 420.09 833.411 422.306 830.489 424.522C827.223 427.42 824.473 430.488 822.926 433.215C820.175 440.033 821.723 446.34 822.582 450.261H820.863C819.488 450.261 818.457 450.943 818.457 452.136C818.457 453.329 819.488 454.352 820.863 454.352H822.41V460.318V471.397H812.269V459.295V458.272V457.931V457.249V454.011H813.128C813.988 454.011 814.675 453.499 814.675 452.477C814.675 451.965 813.988 451.113 813.128 451.113H811.925C812.441 448.897 813.472 444.636 811.581 440.374C810.55 438.499 808.659 436.795 807.112 435.09C805.221 433.215 803.159 431.852 801.268 430.999C801.268 430.999 801.268 430.658 801.268 430.147C801.268 429.806 801.268 428.954 801.268 428.613C801.096 428.272 800.409 427.761 799.721 427.249C799.377 426.738 798.69 426.568 798.518 426.056V425.034H798.69C798.69 425.034 798.69 424.863 798.69 424.522V423.67C798.69 423.67 798.518 423.499 798.174 423.499L798.002 422.818C798.518 422.477 798.518 422.477 798.518 422.477C798.69 421.965 798.69 421.965 798.69 421.965C798.69 421.965 798.69 421.795 798.518 421.795C798.518 421.454 798.174 421.454 798.002 421.454V420.431L797.83 414.124C797.83 414.124 797.83 414.124 797.486 414.124V420.431V421.283C797.143 421.283 797.143 421.283 797.143 421.624L796.799 421.795C796.799 421.795 797.143 421.795 797.143 422.306C797.143 422.306 797.143 422.306 797.486 422.647L797.143 423.329C797.143 423.329 797.143 423.499 796.799 423.499V424.181C796.799 424.522 796.799 424.522 796.799 424.522L797.143 424.693V425.715C796.627 426.227 796.283 426.397 795.596 426.908C795.252 427.42 794.564 427.931 794.22 428.272C793.877 428.954 793.877 429.806 793.877 430.147C793.877 430.658 794.049 430.829 794.22 430.999C792.33 431.852 790.267 433.215 788.376 435.09C786.314 436.795 784.423 438.499 783.564 440.374C781.673 444.636 782.532 448.897 783.392 451.113H781.845C781.329 451.113 780.47 451.795 780.47 452.477C780.47 453.329 781.329 454.011 781.845 454.011H783.048V457.931V471.738H775.313V437.818H778.407C780.47 437.818 782.188 436.113 782.188 434.068C782.188 431.852 780.298 430.318 778.407 430.318H775.313L774.969 373.386H776.172C777.891 373.386 779.61 371.852 779.61 370.147C779.61 368.272 777.891 366.908 776.172 366.908H774.797L774.625 320.204H776.172C777.548 320.204 779.095 319.181 779.095 317.647C779.095 316.283 777.891 315.09 776.86 314.92V296.34V294.977V294.636C776.86 294.295 776.86 294.124 776.86 294.124V290.204H777.891C778.751 290.204 779.782 289.522 779.782 288.67C779.782 287.818 778.751 287.136 777.891 287.136H776.172C777.204 284.579 778.235 279.806 776 275.033C774.969 272.988 772.907 270.943 770.844 268.897C768.438 266.852 766.031 265.147 763.797 264.124C764.14 264.124 764.14 263.783 764.14 263.272C764.14 262.59 764.14 262.079 763.797 261.738C763.625 260.715 763.109 260.033 762.078 259.863C761.906 259.352 761.046 258.67 760.531 258.499V257.306H761.046C761.046 257.306 761.046 256.795 761.046 256.624C761.046 256.624 761.046 256.454 761.046 255.772C761.046 255.772 760.531 255.772 760.359 255.772V254.579C760.531 254.579 760.531 254.579 760.531 254.579C760.531 254.579 761.046 254.238 761.046 253.727L760.531 253.386C760.531 253.215 760.359 253.215 760.359 253.215V252.193L760.015 244.863C760.015 244.522 760.015 244.522 759.843 244.522L759.327 252.363V253.215C759.156 253.215 759.156 253.215 759.156 253.386C758.812 253.386 758.64 253.556 758.64 253.556C758.64 254.068 758.812 254.068 758.812 254.408C759.156 254.408 759.156 254.408 759.156 254.408V255.261C759.156 255.261 758.812 255.261 758.64 255.261C758.64 255.943 758.64 256.113 758.64 256.113C758.64 256.283 758.64 256.795 758.64 256.795C758.64 256.795 758.812 256.795 759.156 256.795V258.499C758.468 258.67 758.124 259.352 757.437 259.693C756.405 259.863 756.062 260.545 755.546 261.568C755.546 261.908 755.374 262.42 755.374 263.102C755.374 263.613 755.546 263.783 755.546 263.783C753.655 264.977 751.249 266.681 749.186 268.727C746.436 270.602 744.717 272.647 743.686 274.863C741.451 279.636 742.483 284.408 743.342 286.965H741.795C740.936 286.965 740.42 287.647 740.42 288.499C740.42 289.352 740.936 290.033 741.795 290.033H743.17V294.636V314.749C741.623 314.92 740.764 315.943 740.764 317.477C740.764 319.011 742.139 320.033 743.858 320.033H745.405L745.061 366.738H743.858C741.795 366.738 740.42 367.931 740.42 369.977C740.42 371.681 741.795 373.215 743.858 373.215H744.889L744.717 430.147H741.451C739.217 430.147 737.498 431.852 737.498 433.897C737.498 436.113 739.389 437.647 741.451 437.647H744.717L744.545 523.215C742.483 521.34 740.42 519.465 737.842 517.931C730.45 511.113 721.684 506.17 714.981 502.59C715.496 501.568 715.84 499.863 715.84 498.329C715.84 496.454 715.496 494.408 714.809 492.533C713.777 490.318 711.543 488.272 709.652 486.908C707.59 485.033 705.527 483.84 703.808 482.988V479.238C704.152 479.068 704.667 478.386 704.667 477.874C705.183 477.533 705.355 476.681 705.355 475.999C705.355 475.318 705.183 474.465 704.667 473.783C704.496 473.443 703.808 473.102 703.464 472.59V469.522C703.636 469.352 703.808 469.011 704.152 468.499C704.496 468.158 704.496 467.647 704.496 467.136C704.496 466.113 704.496 466.113 704.152 465.261C703.808 465.09 703.464 464.408 702.949 464.408V461.34L701.917 436.113C701.573 435.772 701.574 435.431 701.23 435.431C700.714 435.431 700.542 435.772 700.542 436.113L699.339 461.34L698.995 464.408C698.823 464.408 698.651 465.09 698.308 465.261C697.964 466.113 697.792 466.113 697.792 467.136C697.792 467.477 697.964 467.988 697.964 468.499C698.651 469.011 698.651 469.181 698.823 469.522V472.59C698.48 472.931 697.964 473.272 697.62 473.783C697.104 474.465 697.104 475.318 697.104 475.999C697.104 476.681 697.104 477.533 697.62 477.874C697.792 478.386 697.964 478.897 698.651 479.238V482.818C696.932 483.84 694.698 485.034 692.635 486.738C690.573 488.102 688.51 490.147 687.651 492.363C686.619 494.238 686.276 496.283 686.276 498.158C686.619 499.693 686.791 501.397 686.963 502.42C680.26 505.999 672.009 511.113 664.274 517.761C662.383 519.124 660.492 520.318 658.774 522.193H657.055L656.711 476.852H657.57C659.117 476.852 660.321 475.829 660.321 474.295C660.321 472.761 659.117 471.568 657.57 471.568H656.711L656.539 434.749H657.57C658.774 434.749 659.977 433.727 659.977 432.533C659.977 430.999 659.461 430.318 658.258 430.318V424.352V422.818C658.258 422.477 658.258 422.477 658.258 421.965V419.408H659.461C659.977 419.408 660.492 419.068 660.492 418.045C660.492 417.533 659.977 417.022 659.461 417.022H657.742C658.43 414.806 659.461 411.227 657.57 407.136C656.711 405.602 655.164 403.727 653.445 402.363C651.726 400.829 649.836 399.636 648.117 398.443C648.46 398.443 648.46 398.272 648.46 397.761C648.46 397.42 648.46 397.079 647.945 396.568C647.773 395.886 647.429 395.374 646.742 395.204C646.226 394.863 645.882 394.522 645.367 394.352V393.499C645.367 393.499 645.71 393.499 645.71 392.988C645.71 392.988 645.882 392.988 645.882 392.818C645.882 392.818 645.71 392.818 645.71 392.477L645.367 391.795V391.283V390.602H645.71C645.71 390.431 645.367 390.431 645.367 390.431C645.367 389.92 645.367 389.92 645.367 389.92V389.238L644.851 383.443C644.851 383.102 644.851 383.102 644.679 383.102C644.679 383.102 644.679 383.102 644.679 383.443L644.335 389.068V389.749C644.335 389.749 644.335 389.749 644.335 390.261C643.991 390.261 643.991 390.261 643.991 390.431C643.991 390.431 643.991 390.431 644.335 390.431V391.113V391.454L643.991 392.136C643.82 392.477 643.819 392.477 643.819 392.477C643.819 392.647 643.82 392.647 643.991 392.647C643.991 393.158 643.991 393.158 644.335 393.158V394.011C643.819 394.181 643.304 394.522 642.616 394.863C642.272 395.033 641.757 395.545 641.585 396.227C641.413 396.738 641.241 397.079 641.241 397.42C641.241 397.931 641.413 398.102 641.585 398.102C640.038 399.295 637.803 400.488 636.084 402.022C634.366 403.556 632.647 405.431 631.959 406.795C630.24 410.715 630.928 414.465 631.959 416.681H630.412C630.068 417.022 629.381 417.533 629.381 418.045C629.381 419.068 630.068 419.408 630.412 419.408H631.444V422.818V430.658C630.412 430.658 629.897 431.17 629.897 432.874C629.897 434.068 630.584 435.09 632.131 435.09H633.334L632.991 471.908H632.131C631.959 471.908 631.959 471.908 631.959 471.908H613.739L613.395 358.897H617.521C620.787 358.897 623.193 356.17 623.193 353.443C623.193 350.204 620.615 348.158 617.521 348.158H613.395L612.708 266.681H614.427C617.005 266.681 619.068 264.977 619.068 262.249C619.068 259.522 616.833 257.647 614.427 257.647H612.708L612.536 191.511H614.427C616.833 191.511 618.552 189.636 618.552 187.079C618.552 185.374 617.177 183.67 614.943 183.329V172.079V169.863L615.458 169.352C615.458 169.181 614.943 168.84 614.943 168.329V163.045H616.833C618.208 163.045 619.24 162.022 619.24 160.829C619.24 159.806 618.208 158.954 616.833 158.954H614.427C615.802 155.374 617.177 148.386 614.255 141.568C612.708 138.329 609.786 135.09 606.692 132.533C603.426 130.147 599.816 127.761 596.894 126.397C597.066 125.886 597.066 125.204 597.066 124.352C597.238 123.84 597.066 122.988 596.894 122.136C596.379 121.283 595.519 120.431 594.66 119.408C593.8 118.897 592.941 118.386 592.082 117.704V116.511C592.082 116.511 592.253 116.34 592.597 116.34C592.769 115.999 592.769 115.658 592.769 115.147C592.769 115.147 592.769 114.806 592.597 114.295C592.253 114.124 592.082 114.124 592.082 113.954L591.566 112.59C592.081 112.249 592.082 112.249 592.082 112.079C592.253 112.079 592.253 111.908 592.253 111.908C592.253 111.056 592.253 111.056 592.082 110.886C592.082 110.886 592.081 110.886 591.566 110.374V109.181L591.222 98.613L591.05 98.4425L590.706 98.613L590.363 109.181L590.019 110.204C590.019 110.715 590.019 110.715 589.847 110.715C589.847 110.886 589.675 110.886 589.675 111.738C589.675 111.738 589.675 112.079 589.847 112.079C590.019 112.249 590.019 112.249 590.019 112.59V113.954C589.847 114.124 589.675 114.124 589.675 114.295C589.675 114.636 589.159 114.977 589.159 114.977C589.159 115.488 589.675 115.829 589.675 116.17C589.675 116.17 589.847 116.34 590.019 116.34V117.704C589.159 118.386 588.3 118.897 587.44 119.408C586.409 120.431 585.722 121.283 585.378 122.136C584.862 122.988 584.862 123.84 584.862 124.352C584.862 125.033 584.862 125.715 585.034 126.397C582.284 127.59 579.018 129.977 575.58 132.533C571.971 135.09 569.564 138.329 567.846 141.568C564.752 148.386 566.298 155.374 567.674 158.954H565.783C564.408 158.954 563.548 159.806 563.548 160.829C563.548 162.022 564.408 163.045 565.783 163.045H567.502V169.352V182.988C565.611 183.499 564.408 185.033 564.408 186.738C564.408 189.295 566.299 191.17 568.189 191.17H570.596L570.252 257.306H568.189C565.611 257.306 563.548 259.352 563.548 261.908C563.548 264.636 565.783 266.34 568.189 266.34H570.252L569.736 347.818H564.923C564.064 347.818 563.033 347.988 562.173 348.499C552.891 335.545 540.859 323.783 527.28 312.874C508.716 297.363 487.918 284.408 470.729 274.863C471.933 272.306 472.276 268.727 472.448 264.977C472.964 260.715 472.104 255.431 470.042 250.318C467.635 245.033 462.479 240.09 457.494 235.829C452.509 232.249 446.837 229.181 442.884 226.795L442.368 217.931C443.743 217.079 444.603 216.227 445.29 214.863C446.15 213.499 446.322 211.795 446.322 209.92C446.322 208.215 446.15 206.34 445.29 204.977C444.087 203.783 443.056 202.42 441.852 201.568L441.337 194.068C442.196 193.215 442.884 192.533 443.571 191.852C444.087 190.147 444.603 189.295 444.603 187.761C444.603 186.227 443.915 184.693 443.227 183.84C442.712 182.647 441.852 181.795 440.649 181.283L440.477 172.761L437.899 112.42C443.399 112.42 449.243 110.886 454.572 108.158C460.072 104.579 464.713 100.147 467.12 94.6925C464.885 97.5903 462.135 100.318 458.525 102.022C445.118 110.033 427.242 105.431 419.335 91.7948C411.256 77.988 415.897 60.7721 429.82 52.5903C433.258 51.0562 436.696 49.5221 440.649 49.1812C434.805 48.6698 428.445 50.3743 422.773 53.4425C407.303 62.1357 402.318 81.3971 411.256 96.3971C416.241 105.261 425.179 110.715 434.805 111.908L431.711 172.42L431.539 180.943C430.508 181.454 429.82 182.306 429.133 183.499C428.273 184.352 428.102 185.886 428.102 187.42C428.102 188.954 428.273 189.806 428.961 191.511C429.305 192.193 429.992 192.874 430.852 193.727L430.68 201.227C429.305 201.908 428.273 203.272 427.414 204.636C426.554 206.17 425.867 208.045 425.867 209.579C425.867 211.624 426.554 213.158 427.242 214.522C427.758 215.715 428.961 216.568 429.82 217.59L429.305 226.454C425.351 228.84 420.023 231.908 414.866 235.488C409.709 239.579 404.725 244.693 402.49 249.977C400.084 255.09 399.568 260.545 399.912 264.636C399.912 268.386 400.771 271.795 401.631 274.522C384.27 284.068 363.472 296.852 344.736 312.533C325.829 328.045 308.468 346.454 300.046 365.545C280.794 409.181 292.139 452.136 299.358 471.568H276.669V524.408C274.434 522.704 272.716 520.488 270.309 518.613C264.465 514.011 257.933 510.09 252.433 507.022C252.605 505.999 253.12 505.318 253.12 503.613C253.12 502.42 253.121 500.545 251.917 499.522C251.574 497.477 249.855 496.113 248.308 495.09C246.761 493.556 245.042 492.704 243.839 492.022V489.295C244.182 489.124 244.354 488.443 244.698 488.272C244.698 487.42 245.042 487.42 245.042 486.908C245.042 486.056 244.698 486.056 244.354 485.204C244.354 485.204 243.839 484.352 243.495 484.011V481.795C243.667 481.624 243.839 480.943 244.182 480.943C244.354 480.772 244.354 480.09 244.354 479.92C244.354 479.408 244.354 478.897 243.839 478.897C243.839 478.045 243.495 478.045 243.151 478.045V475.147L242.12 455.545C242.12 455.545 241.948 455.204 241.776 455.204C241.604 455.204 241.26 455.545 241.26 455.545L240.401 475.147L240.229 477.874C240.057 477.874 239.713 477.874 239.542 478.727C239.198 478.727 239.198 479.238 239.198 479.749C239.198 479.92 239.198 480.602 239.37 480.772C239.541 480.772 239.713 481.283 240.229 481.624L240.057 483.84C239.541 484.011 239.198 484.863 238.854 485.033C238.682 485.886 238.51 485.886 238.51 486.738C238.51 487.079 238.682 487.249 238.854 488.102C239.198 488.272 239.37 488.954 239.713 489.124V492.022C238.682 492.704 236.963 493.556 235.416 495.09C233.525 496.283 232.15 497.647 231.463 499.522C230.775 500.715 230.431 502.42 230.431 503.613C230.775 505.147 230.947 505.999 231.119 507.022C229.572 507.874 227.509 508.727 225.962 510.09L225.791 471.738H226.65C228.025 471.738 229.4 470.715 229.4 469.181C229.4 467.988 228.025 466.283 226.65 466.283H225.791L225.447 429.977H226.65C227.853 429.977 228.884 428.783 228.884 427.59C228.884 426.397 228.369 425.545 227.166 424.863V419.068V418.045V417.704V417.193V414.465H228.369C228.713 414.465 229.4 413.613 229.4 412.761C229.4 412.249 228.713 412.079 228.369 412.079H226.822C227.509 410.204 228.369 406.113 226.65 402.193C225.79 400.318 223.9 398.613 222.353 397.249C220.462 395.715 218.743 394.522 216.852 393.67C217.196 393.499 217.196 392.988 217.196 392.647C217.196 392.647 217.196 391.624 216.852 391.283C216.852 390.602 216.165 390.431 215.821 389.92C215.305 389.579 214.79 389.238 214.274 388.727V388.386C214.274 388.215 214.618 388.215 214.79 388.215C214.79 388.215 214.79 387.704 214.79 387.533C214.79 387.533 214.79 387.363 214.618 387.363C214.618 386.852 214.274 386.852 214.274 386.852V385.999V385.488C214.618 385.488 214.618 385.488 214.618 385.318C214.618 385.318 214.618 384.977 214.274 384.977C214.274 384.636 214.274 384.636 214.102 384.636V383.954L213.93 378.158H213.758C213.758 377.988 213.758 378.158 213.758 378.158L213.415 383.954V384.636C213.243 384.636 213.071 384.636 213.071 384.977V385.318C213.071 385.488 213.071 385.488 213.071 385.488L213.243 385.999V386.511C213.071 386.511 213.071 386.511 212.727 387.022V387.193C212.727 387.363 212.727 387.874 212.727 387.874C213.071 387.874 213.071 387.874 213.243 388.045L213.071 388.386C212.727 388.897 212.383 389.238 211.696 389.579C211.352 390.09 210.664 390.261 210.493 390.943C210.493 391.283 210.493 392.306 210.493 392.306C210.493 392.477 210.493 393.158 210.493 393.158C208.946 394.181 206.883 395.374 204.992 396.738C203.273 398.102 201.383 399.806 201.039 401.681C199.32 405.602 200.007 409.693 200.695 411.568H199.492C198.976 411.568 198.46 411.738 198.46 412.249C198.46 413.102 198.976 413.954 199.492 413.954H200.523V417.193V424.522C199.492 425.204 198.632 426.056 198.632 427.249C198.632 428.443 200.007 429.636 201.211 429.636H202.242L201.898 466.454H201.039C199.492 466.454 198.289 468.158 198.289 469.352C198.289 470.886 199.492 471.908 201.039 471.908H201.898L201.726 496.795C197.945 490.147 191.413 483.329 184.366 478.045C176.631 471.397 167.865 465.943 160.645 461.681C160.817 460.829 161.161 459.295 161.333 458.102C161.333 455.886 161.161 453.84 160.13 451.624C159.098 449.238 157.208 447.022 154.973 445.488C152.739 443.954 150.504 442.42 149.129 441.908L148.613 438.158C149.129 438.158 149.473 437.477 149.988 436.624C150.16 436.283 150.504 435.602 150.504 435.09C150.504 434.238 150.16 433.215 149.816 432.704C149.473 432.193 149.129 431.681 148.441 431.34L148.27 428.272C148.613 428.102 149.129 427.59 149.129 427.079C149.301 426.908 149.473 426.397 149.473 425.374C149.473 425.204 149.301 424.352 149.129 424.011C148.613 423.329 148.441 422.988 148.27 422.306L147.754 419.408L146.723 393.158C146.723 392.988 146.379 392.988 146.035 392.988C145.863 392.988 145.347 392.988 145.347 393.158L144.316 419.408L144.144 422.306C143.629 422.818 143.285 423.329 142.769 424.011C142.769 424.352 142.597 425.204 142.597 425.374C142.597 426.227 142.769 426.908 142.769 427.079C143.285 427.59 143.457 428.102 143.8 428.272L143.629 431.34C142.941 431.511 142.769 432.193 142.254 432.704C141.91 433.215 141.738 434.068 141.738 435.09C141.738 435.602 141.91 436.283 142.254 436.624C142.597 437.477 142.769 438.158 143.285 438.158V441.908C141.394 442.59 139.503 444.124 137.269 445.488C134.862 447.022 132.972 449.238 131.94 451.624C131.081 453.67 130.909 455.545 130.909 457.761C130.909 459.124 131.425 460.658 131.596 461.34C125.237 465.09 117.33 469.863 110.111 475.829L109.767 404.068H112.345C116.298 404.068 119.564 400.829 119.564 396.738C119.564 392.477 116.298 389.408 112.345 389.408H109.767L109.079 288.499H112.345C115.783 288.499 118.705 285.261 118.705 282.022C118.705 279.124 116.47 276.397 113.548 275.545V235.829V232.931L113.72 232.249C113.72 231.568 113.376 231.397 113.376 230.545V222.704H116.299C118.189 222.704 119.736 220.999 119.736 219.295C119.736 217.249 118.189 215.886 116.299 215.886H112.689C114.58 210.602 116.642 200.204 112.001 189.806C109.767 184.693 105.126 180.261 100.313 176.17C95.6721 172.249 90.1717 168.499 85.7026 166.283C85.8745 165.431 86.2183 164.408 86.3901 163.727C86.3901 162.874 86.2184 161.17 85.5309 159.806C84.8433 158.783 83.4682 157.079 82.265 156.227C80.8899 155.374 79.3429 154.522 78.4834 153.499V151.624C78.6553 151.113 78.999 151.113 79.1709 150.772C79.3428 150.261 79.3429 150.09 79.3429 149.408C79.3429 149.408 79.3428 148.386 79.1709 148.215C78.999 148.045 78.4834 147.363 78.3115 147.363L77.9677 145.147C78.3115 144.977 78.4833 144.977 78.6552 144.465C78.999 144.295 78.9991 144.124 78.9991 143.783C78.9991 143.272 78.9991 143.102 78.4834 142.42C78.4834 142.249 78.3115 142.079 77.9677 142.079L77.7959 140.033L77.2802 123.67C77.2802 123.67 76.9364 123.499 76.7645 123.499C76.5926 123.499 76.5927 123.67 76.5927 123.67L75.7333 140.033V142.079C75.2176 142.079 75.2176 142.249 74.8738 142.42C74.53 143.102 74.5301 143.272 74.5301 143.783C74.5301 144.124 74.53 144.124 74.8738 144.465C74.8738 144.977 75.2175 144.977 75.5613 145.147L75.2176 147.363C74.8738 147.363 74.53 148.045 74.3581 148.215L74.1863 149.238C74.1863 150.09 74.1862 150.261 74.3581 150.602C74.53 150.943 74.53 150.943 75.2176 151.454L74.8738 153.499C73.8425 154.522 72.4674 155.374 71.2642 156.227C69.8891 156.908 68.6859 158.613 67.9984 159.806C67.4827 161.17 67.4826 162.874 67.4826 163.727C67.4826 164.238 67.4826 165.261 67.8264 166.283C63.3573 168.499 58.0288 172.249 53.216 176.17C48.2313 180.261 43.9341 184.693 41.5277 189.806C37.0587 200.374 39.2931 210.772 41.012 215.886H38.0901C36.0274 215.886 34.6522 217.249 34.6522 219.295C34.6522 220.999 36.0274 222.704 38.0901 222.704H40.6683V232.249V275.715C37.7462 276.397 35.6835 279.295 35.6835 282.193C35.6835 285.602 38.6056 288.67 42.2152 288.67H45.4811L44.7936 389.579H42.2152C38.2618 389.579 34.996 392.647 34.996 396.908C34.996 400.999 38.2618 404.238 42.2152 404.238H44.6216L44.2779 528.499H36.8869C32.5897 528.499 28.6362 532.079 28.6362 536.681C28.6362 540.943 32.4178 545.034 36.8869 545.034H43.9341L43.0747 718.897H111.486H277.013H635.053H747.467H1105.68H1381.56V565.147H1368.67C1370.73 557.988 1372.28 547.249 1367.12 535.658C1364.37 529.863 1359.38 524.238 1353.02 519.124C1347.35 514.522 1340.82 510.09 1335.15 507.022C1335.49 506.511 1335.84 505.318 1335.84 504.124C1335.84 502.59 1335.84 501.397 1334.98 499.693C1333.95 497.988 1332.4 496.283 1331.2 495.09C1329.48 493.556 1327.59 492.874 1326.73 492.022L1326.38 489.295C1326.73 489.124 1327.07 488.954 1327.24 488.443C1327.41 488.102 1327.59 487.42 1327.59 487.079C1327.59 486.227 1327.41 486.056 1327.24 485.204C1327.07 485.204 1326.73 484.863 1326.21 484.352V481.965C1326.38 481.795 1326.73 481.454 1326.73 480.943C1326.73 480.772 1327.07 480.09 1327.07 479.92C1327.07 479.238 1326.73 479.068 1326.73 478.727C1326.55 478.386 1326.21 477.874 1325.69 477.874V475.147L1324.66 455.545C1324.66 455.204 1324.66 455.204 1324.32 455.204C1324.15 455.204 1323.98 455.204 1323.98 455.545L1323.12 475.147L1322.77 477.874C1322.43 477.874 1322.26 478.386 1322.09 478.727C1322.09 478.897 1321.74 479.238 1321.74 479.92C1321.74 480.09 1322.09 480.602 1322.09 480.943C1322.26 481.454 1322.43 481.795 1322.6 481.965L1322.43 484.181C1322.26 484.693 1321.74 485.033 1321.57 485.033C1321.4 485.886 1321.23 485.886 1321.23 486.908C1321.23 487.249 1321.4 487.931 1321.4 488.272C1321.74 488.783 1322.09 488.954 1322.26 489.124V492.022C1320.71 492.874 1319.16 493.556 1317.79 495.09C1316.07 496.454 1314.52 497.988 1313.83 499.693C1313.32 501.397 1312.98 502.59 1312.98 504.124C1313.32 505.147 1313.32 506.34 1313.66 507.022C1308.51 510.261 1301.8 514.522 1295.79 519.124C1289.77 524.238 1284.44 529.863 1281.69 535.658C1276.71 547.249 1278.25 557.988 1279.97 565.147H1272.93L1272.75 493.556H1276.02C1278.25 493.556 1279.63 492.022 1279.63 489.977C1279.63 487.761 1278.08 485.886 1276.02 485.886H1272.75L1272.41 428.954H1273.27C1275.16 428.954 1276.71 427.59 1276.71 425.715C1276.71 423.67 1275.16 422.306 1273.27 422.306H1272.41L1271.72 375.772H1273.27C1274.99 375.772 1276.36 374.92 1276.36 373.045C1276.36 371.852 1275.16 370.658 1273.96 370.488V352.249V350.715L1274.13 350.374C1273.96 350.033 1273.96 349.693 1273.96 349.522V345.943H1275.16C1276.19 345.943 1276.88 345.602 1276.88 344.408C1276.88 343.727 1276.19 342.704 1275.16 342.704H1273.44C1274.3 340.147 1275.5 335.545 1273.27 330.772C1272.41 328.215 1270.18 326.17 1267.94 324.636C1265.88 322.761 1263.47 321.056 1261.24 319.863C1261.41 319.693 1261.41 319.352 1261.41 318.84C1261.41 318.499 1261.41 317.818 1261.24 317.477C1260.72 316.965 1260.38 316.113 1259.69 315.602C1259 315.261 1258.14 314.749 1257.97 314.408V313.386C1257.97 313.045 1257.97 313.045 1258.14 312.874V312.533C1258.14 312.533 1258.14 312.193 1258.14 311.511C1257.97 311.511 1257.97 311.17 1257.97 311.17L1257.8 310.488C1257.97 310.488 1257.97 310.488 1257.97 310.318C1257.97 310.318 1257.97 309.977 1257.97 309.806V309.295C1257.97 309.295 1257.97 309.124 1257.8 309.124V307.761L1257.46 300.943C1257.46 300.261 1257.11 300.261 1257.11 300.261C1257.11 300.261 1256.94 300.261 1256.94 300.943L1256.42 307.761V309.124C1256.25 309.124 1256.25 309.124 1256.25 309.124C1256.08 309.295 1256.08 309.636 1256.08 309.636C1256.08 309.806 1256.08 310.147 1256.25 310.147C1256.25 310.318 1256.25 310.318 1256.42 310.318L1256.25 311.34C1256.25 311.34 1256.08 311.681 1255.74 311.681C1255.74 312.193 1255.74 312.533 1255.74 312.533V312.874C1256.08 312.874 1256.25 312.874 1256.25 313.386V314.408C1255.74 314.749 1255.39 315.261 1254.53 315.602C1253.85 315.943 1253.16 316.795 1253.16 317.477C1252.81 317.818 1252.81 318.499 1252.81 318.84C1252.81 319.352 1252.81 319.693 1252.81 319.863C1250.75 321.056 1248.35 322.931 1245.94 324.636C1243.88 326.17 1241.81 328.215 1240.95 330.772C1238.55 335.374 1239.92 340.147 1240.78 342.704H1239.06C1237.86 342.704 1237.52 343.556 1237.52 344.408C1237.52 345.431 1237.86 345.943 1239.06 345.943H1240.27V350.204V370.488C1239.06 370.658 1237.86 371.681 1237.86 373.045C1237.86 374.92 1239.41 375.772 1241.13 375.772H1242.5L1242.33 422.306H1241.3C1239.41 422.306 1237.69 423.67 1237.69 425.715C1237.69 427.42 1239.41 428.954 1241.3 428.954H1242.5L1241.99 485.886H1238.72C1236.49 485.886 1235.11 487.761 1235.11 489.977C1235.11 491.852 1236.66 493.556 1238.72 493.556H1241.99L1241.81 565.147H1230.81V553.556H1232.36C1233.91 553.556 1235.28 552.533 1235.28 551.17C1235.28 549.465 1233.91 548.102 1232.36 548.102H1230.81C1233.74 541.624 1240.95 520.829 1231.5 499.693C1227.89 491.34 1220.5 483.159 1212.08 476.681C1203.83 470.033 1194.55 464.068 1187.15 459.977C1187.67 458.613 1187.84 457.079 1187.84 455.886C1188.36 453.67 1187.84 451.624 1186.98 449.408C1185.78 446.852 1183.72 444.806 1181.48 443.102C1179.25 441.568 1176.84 440.374 1175.12 439.181L1174.95 435.09C1175.64 434.92 1175.98 434.579 1176.33 433.897C1176.5 433.215 1176.84 432.704 1176.84 431.681C1176.84 430.829 1176.5 430.488 1175.98 429.636C1175.98 428.954 1175.47 428.613 1174.43 428.443V424.863C1174.95 424.693 1175.12 424.352 1175.47 423.84C1175.64 423.499 1175.98 422.818 1175.98 421.795C1175.98 421.624 1175.64 421.113 1175.47 420.261C1174.95 419.749 1174.95 419.408 1174.09 419.408V415.658L1172.89 388.556C1172.89 388.556 1172.54 388.215 1172.37 388.215C1171.86 388.215 1171.68 388.386 1171.68 388.556L1170.48 415.658V419.408C1169.79 419.408 1169.28 419.749 1169.28 420.261C1168.59 420.943 1168.59 421.624 1168.59 421.795C1168.59 422.647 1168.59 423.499 1169.28 423.84C1169.28 424.352 1169.45 424.693 1169.79 424.863V428.443C1169.28 428.783 1168.59 428.954 1168.42 429.806C1167.9 430.658 1167.73 430.999 1167.73 431.852C1167.73 432.874 1167.9 433.215 1168.25 434.068C1168.59 434.749 1169.11 435.09 1169.28 435.261V439.181C1167.39 440.374 1165.32 441.568 1162.92 443.102C1160.51 444.806 1158.62 446.852 1157.59 449.408C1156.73 451.624 1156.21 453.67 1156.21 455.886C1156.73 457.249 1156.73 458.613 1157.25 459.977C1149.68 463.897 1140.74 470.033 1132.32 476.681C1124.07 483.159 1116.68 491.34 1113.07 499.693C1103.79 520.999 1111.01 541.624 1113.59 548.102H1112.21C1110.49 548.102 1108.95 549.465 1108.95 551.17C1108.95 552.533 1110.49 553.556 1112.21 553.556H1112.73V565.147H1105.68V504.806H1106.02L1105.68 474.465V471.738L1105.51 455.545H1108.26C1110.15 455.545 1111.52 454.011 1111.52 452.477C1111.52 450.772 1110.15 449.579 1108.26 449.579H1105.51L1105.34 404.068H1106.37C1107.91 404.068 1108.95 402.704 1108.95 401.852C1108.95 400.147 1107.91 399.124 1106.37 399.124H1105.34V362.136H1106.37C1107.74 362.136 1108.77 361.283 1108.77 359.92C1108.77 358.727 1107.91 357.533 1107.05 357.533V351.568V350.374V350.033C1107.05 349.693 1107.05 349.693 1107.05 349.522V346.624H1107.91C1108.43 346.624 1108.95 345.943 1108.95 345.602C1108.95 344.749 1108.43 344.068 1107.91 344.068H1106.54C1107.05 342.022 1107.91 338.272 1106.37 334.693C1105.51 332.647 1103.79 330.943 1102.07 329.92C1100.01 328.045 1098.29 326.852 1096.57 325.999C1096.74 325.999 1096.74 325.488 1096.74 325.147C1096.74 324.977 1096.74 324.465 1096.57 323.954C1096.4 323.272 1095.88 322.931 1095.54 322.42C1094.85 322.079 1094.51 322.079 1093.99 321.738V320.545C1094.16 320.545 1094.16 320.545 1094.16 320.033C1094.16 319.863 1094.16 319.522 1094.16 319.522L1093.99 319.181L1093.82 318.67C1093.99 318.329 1093.99 318.329 1093.99 318.329H1094.16C1094.16 317.988 1094.16 317.988 1094.16 317.988C1094.16 317.818 1094.16 317.818 1093.99 317.647C1093.99 317.647 1093.99 317.647 1093.82 317.306V316.454L1093.48 310.488H1093.3H1093.13L1092.96 316.454V316.965C1092.62 317.306 1092.62 317.306 1092.62 317.306C1092.62 317.306 1092.44 317.306 1092.44 317.647C1092.44 317.647 1092.62 317.647 1092.62 317.988C1092.62 317.988 1092.62 317.988 1092.62 318.329V318.84C1092.62 318.84 1092.62 319.181 1092.44 319.181C1092.44 319.181 1092.44 319.522 1092.44 319.693C1092.44 320.204 1092.62 320.204 1092.62 320.204V321.568C1092.27 321.738 1091.58 321.908 1091.41 322.249C1090.73 322.761 1090.38 323.102 1090.04 323.783C1090.04 323.954 1090.04 324.806 1090.04 324.977C1090.04 325.318 1090.04 325.829 1090.21 325.829C1088.49 326.681 1086.6 328.045 1085.05 329.749C1082.82 330.772 1081.44 332.477 1080.58 334.522C1078.87 338.102 1079.72 341.852 1080.58 343.897H1079.38C1078.69 343.897 1078.01 344.579 1078.01 345.431C1078.01 345.772 1078.69 346.454 1079.38 346.454H1080.07V349.863V357.363C1079.38 357.363 1078.69 358.386 1078.69 359.749C1078.69 361.113 1079.55 361.965 1080.76 361.965H1081.96V362.136ZM201.039 425.034H204.82V420.602C204.82 420.602 204.82 420.431 204.305 420.261C204.133 419.579 204.305 419.408 204.305 419.068C205.164 416.681 202.414 416.34 201.039 415.318C200.179 416.17 200.351 417.533 201.211 419.068C201.211 419.408 201.211 419.579 201.039 420.261C200.867 420.261 200.867 420.602 200.867 420.602V425.034H201.039ZM209.289 425.034H218.399V420.602C218.399 420.602 218.399 420.431 217.884 420.261C217.368 419.579 217.884 419.408 217.884 419.068C218.743 415.999 214.274 416.34 213.93 414.465C213.243 416.34 208.602 416.17 209.805 419.068C209.977 419.408 210.149 419.579 209.805 420.261C209.461 420.261 209.461 420.602 209.461 420.602V425.034H209.289ZM222.697 425.034H226.478V420.602C226.478 420.602 226.478 420.431 225.962 420.261C225.79 419.579 225.962 419.408 225.962 419.068C226.65 417.533 226.822 415.999 225.962 415.318C224.587 416.34 222.009 416.852 222.868 419.068C222.868 419.408 222.868 419.579 222.697 420.261C222.353 420.261 222.525 420.602 222.525 420.602V425.034H222.697ZM632.131 430.147H635.741V425.886C635.741 425.886 635.913 425.545 635.741 424.863C635.225 424.863 635.397 424.693 635.741 423.84C636.256 421.795 633.85 421.283 632.303 420.261C631.616 421.113 631.787 422.306 632.303 423.84C632.647 424.693 632.647 424.863 632.303 424.863C631.959 425.545 631.959 425.886 631.959 425.886V430.147H632.131ZM640.554 430.147H649.148V425.886C649.148 425.886 649.148 425.545 649.148 424.863C648.632 424.863 648.632 424.693 648.804 423.84C649.836 421.283 645.195 421.283 644.851 419.408C644.335 421.283 640.038 421.283 640.726 423.84C641.069 424.693 641.069 424.863 640.726 424.863C640.382 425.545 640.726 425.886 640.726 425.886V430.147H640.554ZM653.789 430.147H657.57V425.886C657.57 425.886 657.57 425.545 657.399 424.863C657.055 424.863 657.055 424.693 657.399 423.84C658.086 422.477 658.258 421.283 657.399 420.261C656.023 421.113 653.445 421.624 654.133 423.84C654.133 424.693 654.477 424.863 654.133 424.863C653.445 425.545 653.617 425.886 653.617 425.886V430.147H653.789ZM812.097 471.738H807.971V461.511C807.971 461.511 807.8 460.999 808.315 460.658C808.487 460.147 808.487 459.806 808.315 459.124C807.112 456.908 810.378 456.397 811.925 455.204C812.784 456.056 812.612 457.249 811.925 459.124C811.753 459.806 811.753 459.977 811.925 460.658C812.269 460.829 812.269 461.511 812.269 461.511V471.738H812.097ZM802.815 471.738H793.017V461.511C793.017 461.511 793.017 460.999 793.189 460.658C793.533 460.147 793.361 459.806 793.189 459.124C792.33 455.886 797.314 455.886 797.83 454.011C798.518 456.056 803.33 456.056 802.127 459.124C801.955 459.806 801.783 459.977 802.127 460.658C802.643 460.829 802.643 461.511 802.643 461.511V471.738H802.815ZM787.689 471.738H783.735V461.511C783.735 461.511 783.564 460.999 784.251 460.658C784.423 460.147 784.251 459.806 784.251 459.124C783.564 457.249 783.392 455.886 784.251 455.204C785.798 456.397 788.376 457.079 787.689 459.124C787.689 459.806 787.517 459.977 787.861 460.658C787.861 460.829 787.861 461.511 787.861 461.511V471.738H787.689ZM1069.76 471.738H1065.46V461.511C1065.46 461.511 1065.46 460.999 1065.8 460.658C1066.15 460.147 1065.97 459.806 1065.8 459.124C1064.94 456.908 1067.69 456.397 1069.41 455.204C1070.27 456.056 1070.1 457.249 1069.41 459.124C1069.41 459.806 1069.24 459.977 1069.58 460.658C1069.93 460.829 1069.93 461.511 1069.93 461.511V471.738H1069.76ZM1060.3 471.738H1050.5V461.511C1050.5 461.511 1050.5 460.999 1050.68 460.658C1051.19 460.147 1051.19 459.806 1051.02 459.124C1049.64 455.886 1054.8 455.886 1055.14 454.011C1056 456.056 1060.82 456.056 1059.79 459.124C1059.79 459.806 1059.27 459.977 1059.79 460.658C1060.13 460.829 1060.13 461.511 1060.13 461.511V471.738H1060.3ZM1045.52 471.738H1041.22V461.511C1041.22 461.511 1041.22 460.999 1041.57 460.658C1041.91 460.147 1041.91 459.806 1041.57 459.124C1041.22 457.249 1040.53 455.886 1041.57 455.204C1043.28 456.397 1045.86 457.079 1045.18 459.124C1044.83 459.806 1044.83 459.977 1045.18 460.658C1045.52 460.829 1045.52 461.511 1045.52 461.511V471.738ZM42.2152 275.545H52.5285V240.772C52.5285 240.772 53.0442 239.749 51.841 238.727C50.9816 237.704 51.3253 236.511 51.841 235.488C54.0755 229.693 47.0282 228.499 42.9029 225.602C40.6683 227.988 41.5278 231.397 42.9029 235.488C43.4185 236.511 44.1061 237.704 42.9029 238.727C42.0434 239.749 42.2152 240.772 42.2152 240.772V275.545ZM64.9043 275.545H89.1405V240.772C89.1405 240.772 89.4841 239.749 88.4528 238.727C87.4215 237.704 87.7653 236.511 88.1091 235.488C91.203 227.988 78.4834 228.329 77.1083 222.704C75.9051 228.329 63.3574 227.988 65.9357 235.488C66.6232 236.511 66.967 237.704 65.9357 238.727C64.9044 239.749 65.0762 240.772 65.0762 240.772V275.545H64.9043ZM101.344 275.545H112.173V240.772C112.173 240.772 112.345 239.749 111.486 238.727C110.283 237.704 110.97 236.511 111.314 235.488C112.861 231.397 113.548 227.988 111.486 225.602C107.532 228.67 100.485 229.522 102.548 235.488C102.891 236.511 103.407 237.704 102.032 238.727C101.344 239.749 101.344 240.772 101.344 240.772V275.545ZM1241.47 370.147H1245.94V354.295C1245.94 354.295 1246.11 354.124 1245.77 353.272C1245.6 352.931 1245.6 352.42 1245.77 351.908C1246.63 349.011 1243.36 348.499 1241.47 347.647C1240.78 348.329 1240.95 349.863 1241.47 351.908C1241.99 352.249 1241.99 352.761 1241.47 353.272C1241.3 353.954 1241.47 354.295 1241.47 354.295V370.147ZM1251.61 370.147H1262.78V354.295C1262.78 354.295 1262.78 354.124 1262.44 353.272C1261.92 352.931 1262.1 352.42 1262.44 351.908C1263.47 348.329 1257.97 348.499 1257.11 345.943C1256.42 348.499 1250.75 348.329 1252.3 351.908C1252.3 352.249 1252.47 352.761 1251.96 353.272C1251.61 353.954 1251.61 354.295 1251.61 354.295V370.147ZM1268.63 370.147H1273.27V354.295C1273.27 354.295 1273.44 354.124 1272.75 353.272C1272.58 352.931 1272.58 352.42 1272.75 351.908C1273.44 349.693 1273.96 348.329 1272.75 347.647C1271.21 348.67 1267.94 349.181 1269.14 351.908C1269.14 352.249 1269.32 352.761 1269.14 353.272C1268.46 353.954 1268.63 354.295 1268.63 354.295V370.147ZM868.132 471.738H861.257V466.113C861.257 466.113 861.257 465.772 861.944 465.09C862.116 464.068 862.116 463.556 861.944 463.045C860.569 459.295 865.21 458.613 867.444 457.079C868.82 458.272 868.304 460.488 867.444 463.045C867.444 463.556 866.929 464.068 867.616 465.09C868.304 465.772 868.132 466.113 868.132 466.113V471.738ZM853.522 471.738H838.052V466.113C838.052 466.113 838.052 465.772 838.739 465.09C839.255 464.068 839.083 463.556 838.739 463.045C836.849 458.272 844.927 458.272 845.787 454.863C846.646 458.272 854.725 458.272 852.834 463.045C852.49 463.556 852.318 464.068 853.006 465.09C853.694 465.772 853.522 466.113 853.522 466.113V471.738ZM830.489 471.738H823.785V466.113C823.785 466.113 823.785 465.772 824.473 465.09C824.816 464.068 824.645 463.556 824.473 463.045C823.269 460.318 822.926 458.272 824.473 457.079C826.879 458.613 831.176 459.295 829.629 463.045C829.458 463.556 828.942 464.068 830.145 465.09C830.489 465.772 830.489 466.113 830.489 466.113V471.738ZM1029.53 471.738H1023V466.113C1023 466.113 1022.66 465.772 1023.35 465.09C1023.86 464.068 1023.69 463.556 1023.35 463.045C1022.14 459.295 1026.61 458.613 1029.19 457.079C1030.39 458.272 1029.88 460.488 1029.19 463.045C1028.67 463.556 1028.5 464.068 1029.19 465.09C1029.53 465.772 1029.53 466.113 1029.53 466.113V471.738ZM1015.1 471.738H999.797V466.113C999.797 466.113 999.625 465.772 999.969 465.09C1001 464.068 1000.48 463.556 1000.31 463.045C998.422 458.272 1006.33 458.272 1007.19 454.863C1008.05 458.443 1016.13 458.443 1014.58 463.045C1014.24 463.556 1013.89 464.068 1014.58 465.09C1015.1 465.772 1015.1 466.113 1015.1 466.113V471.738ZM991.719 471.738H985.187V466.113C985.187 466.113 985.187 465.772 985.359 465.09C986.39 464.068 986.046 463.556 985.874 463.045C985.015 460.318 984.327 458.272 985.874 457.079C988.281 458.613 992.578 459.295 991.203 463.045C990.859 463.556 990.687 464.068 991.375 465.09C992.063 465.772 991.719 466.113 991.719 466.113V471.738ZM743.858 314.408H748.671V298.215C748.671 298.215 748.671 298.045 748.327 297.193C747.983 296.852 748.327 296.681 748.327 295.829C749.186 293.102 745.748 292.761 744.373 291.567C743.342 292.59 743.686 294.124 744.373 295.829C744.717 296.681 744.717 296.852 744.373 297.193C743.686 297.874 743.858 298.215 743.858 298.215V314.408ZM754.343 314.408H765.515V298.215C765.515 298.215 765.515 298.045 765 297.193C764.828 296.852 765 296.681 765 295.829C766.031 292.42 760.531 292.761 760.015 290.033C759.328 292.761 753.655 292.42 754.858 295.829C754.858 296.681 755.202 296.852 754.687 297.193C754.343 297.874 754.343 298.215 754.343 298.215V314.408ZM770.844 314.408H775.829V298.215C775.829 298.215 776.001 298.045 775.485 297.193C775.141 296.852 775.141 296.681 775.485 295.829C776.172 294.124 776.344 292.42 775.485 291.567C773.766 292.931 770.672 293.272 771.36 295.829C771.531 296.681 771.875 296.852 771.36 297.193C770.844 297.874 770.844 298.215 770.844 298.215V314.408ZM568.705 358.727C568.877 359.238 569.393 359.408 569.564 360.09V358.727H568.705ZM568.361 182.818H575.408V175.147C575.408 175.147 575.58 174.465 574.893 173.272C574.033 172.931 574.549 172.42 574.721 171.397C576.268 167.818 571.455 167.136 569.049 164.92C567.502 166.795 568.189 168.84 569.049 171.397C569.564 172.249 569.736 172.761 568.877 173.272C568.361 174.465 568.361 175.147 568.361 175.147V182.818ZM583.315 182.818H598.957V175.147C598.957 175.147 598.957 174.465 598.785 173.272C598.269 172.931 598.613 172.42 598.613 171.397C600.504 166.795 592.253 166.795 591.394 163.045H591.222C590.019 166.795 582.112 166.795 584.003 171.397C584.175 172.249 584.347 172.761 583.831 173.272C583.315 174.465 583.315 175.147 583.315 175.147V182.818ZM607.551 182.818H614.255V175.147C614.255 175.147 614.255 174.465 613.567 173.272C613.224 172.931 613.224 172.42 613.567 171.397C614.427 168.84 614.943 166.283 613.567 164.92C610.989 167.136 606.692 167.818 607.895 171.397C607.895 172.249 608.411 172.761 607.895 173.272C607.036 174.465 607.551 175.147 607.551 175.147V182.818ZM1080.58 357.533H1084.37V353.272C1084.37 353.272 1084.37 352.931 1084.19 352.42C1084.02 352.42 1084.02 351.738 1084.19 351.397C1084.88 349.181 1081.96 349.011 1080.93 347.988C1079.72 348.67 1080.24 349.863 1080.93 351.397C1081.1 351.738 1081.1 352.42 1080.93 352.42C1080.24 352.931 1080.41 353.272 1080.41 353.272V357.533H1080.58ZM1089.18 357.533H1097.6V353.272C1097.6 353.272 1097.94 352.931 1097.6 352.42C1097.43 352.42 1097.43 351.738 1097.6 351.397C1098.46 348.67 1093.99 348.67 1093.48 346.795C1093.13 348.67 1088.66 348.67 1089.52 351.397C1089.69 351.738 1089.69 352.42 1089.52 352.42C1089.35 352.931 1089.35 353.272 1089.35 353.272V357.533H1089.18ZM1102.41 357.533H1106.2V353.272C1106.2 353.272 1106.2 352.931 1106.02 352.42C1105.34 352.42 1105.51 351.738 1105.85 351.397C1106.37 349.863 1106.88 348.499 1105.85 347.988C1104.48 348.67 1102.07 349.181 1102.76 351.397C1102.76 351.738 1102.93 352.42 1102.59 352.42C1102.07 352.931 1102.24 353.272 1102.24 353.272V357.533H1102.41Z" fill="url(#paint0_linear_2179_4730)"/>
</g>
<defs>
<linearGradient id="paint0_linear_2179_4730" x1="688.5" y1="-38.5" x2="705" y2="551" gradientUnits="userSpaceOnUse">
<stop stop-color="#002140" stop-opacity="0"/>
<stop offset="0.785755" stop-color="#063158"/>
</linearGradient>
</defs>
</svg>
