<svg width="160" height="160" viewBox="0 0 160 160" fill="none" xmlns="http://www.w3.org/2000/svg">
<path d="M110.469 61.0938L94.0625 56.4062L89.375 40H56.5625C52.6792 40 49.5312 43.148 49.5312 47.0312V112.969C49.5312 116.852 52.6792 120 56.5625 120H103.438C107.321 120 110.469 116.852 110.469 112.969V61.0938Z" fill="#61DB98"/>
<path d="M110.469 61.0938V112.969C110.469 116.852 107.321 120 103.438 120H80V40H89.375L94.0625 56.4062L110.469 61.0938Z" fill="#03A84E"/>
<path d="M110.469 61.0938H94.0625C91.4844 61.0938 89.375 58.9844 89.375 56.4062V40C89.9844 40 90.5937 40.2344 91.0155 40.7033L109.765 59.4533C110.234 59.875 110.469 60.4844 110.469 61.0938Z" fill="#A2F0C5"/>
<path d="M94.0625 77.6562H65.9375C64.642 77.6562 63.5938 76.608 63.5938 75.3125C63.5938 74.017 64.642 72.9688 65.9375 72.9688H94.0625C95.358 72.9688 96.4062 74.017 96.4062 75.3125C96.4062 76.608 95.358 77.6562 94.0625 77.6562Z" fill="#FFF5F5"/>
<path d="M94.0625 87.0312H65.9375C64.642 87.0312 63.5938 85.983 63.5938 84.6875C63.5938 83.392 64.642 82.3438 65.9375 82.3438H94.0625C95.358 82.3438 96.4062 83.392 96.4062 84.6875C96.4062 85.983 95.358 87.0312 94.0625 87.0312Z" fill="#FFF5F5"/>
<path d="M94.0625 96.4062H65.9375C64.642 96.4062 63.5938 95.358 63.5938 94.0625C63.5938 92.767 64.642 91.7188 65.9375 91.7188H94.0625C95.358 91.7188 96.4062 92.767 96.4062 94.0625C96.4062 95.358 95.358 96.4062 94.0625 96.4062Z" fill="#FFF5F5"/>
<path d="M84.6875 105.781H65.9375C64.642 105.781 63.5938 104.733 63.5938 103.438C63.5938 102.142 64.642 101.094 65.9375 101.094H84.6875C85.983 101.094 87.0312 102.142 87.0312 103.438C87.0312 104.733 85.983 105.781 84.6875 105.781Z" fill="#FFF5F5"/>
<path d="M80 105.781H84.6875C85.983 105.781 87.0312 104.733 87.0312 103.438C87.0312 102.142 85.983 101.094 84.6875 101.094H80V105.781Z" fill="#E3E7EA"/>
<path d="M80 96.4062H94.0625C95.358 96.4062 96.4062 95.358 96.4062 94.0625C96.4062 92.767 95.358 91.7188 94.0625 91.7188H80V96.4062Z" fill="#E3E7EA"/>
<path d="M80 87.0312H94.0625C95.358 87.0312 96.4062 85.983 96.4062 84.6875C96.4062 83.392 95.358 82.3438 94.0625 82.3438H80V87.0312Z" fill="#E3E7EA"/>
<path d="M80 77.6562H94.0625C95.358 77.6562 96.4062 76.608 96.4062 75.3125C96.4062 74.017 95.358 72.9688 94.0625 72.9688H80V77.6562Z" fill="#E3E7EA"/>
<circle cx="80" cy="80" r="79.5" stroke="#FFAC76"/>
</svg>
